<?xml version="1.0" encoding="utf-8"?>
<!-- Generator: Adobe Illustrator 27.4.0, SVG Export Plug-In . SVG Version: 6.00 Build 0)  -->
<svg version="1.1" id="logo" xmlns="http://www.w3.org/2000/svg" xmlns:xlink="http://www.w3.org/1999/xlink" x="0px" y="0px"
	 viewBox="0 0 170.1 317.4" style="enable-background:new 0 0 170.1 317.4;" xml:space="preserve">
<style type="text/css">
	.st0{fill:#AF1D41;}
</style>
<g id="red-nobg">
	<polygon class="st0" points="148.9,89.7 148.9,155.5 106.7,155.5 106.7,77.7 100.7,77.7 100.7,143.5 82.6,143.5 82.6,53.8 
		124.8,53.8 124.8,137.5 130.8,137.5 130.8,89.7 	"/>
	<polygon class="st0" points="154.9,185.4 154.9,263.1 124.8,263.1 124.8,185.4 118.8,185.4 118.8,233.2 106.7,233.2 106.7,161.4 
		136.9,161.4 136.9,227.2 142.9,227.2 142.9,185.4 	"/>
	<polygon class="st0" points="76.6,53.8 76.6,179.4 46.4,179.4 46.4,137.5 40.4,137.5 40.4,209.3 22.3,209.3 22.3,89.7 52.4,89.7 
		52.4,125.6 58.5,125.6 58.5,53.8 	"/>
	<polygon class="st0" points="100.7,149.5 100.7,251.1 64.5,251.1 64.5,209.3 58.5,209.3 58.5,233.2 46.4,233.2 46.4,185.4 
		76.6,185.4 76.6,221.2 82.6,221.2 82.6,149.5 	"/>
</g>
</svg>
