<?xml version="1.0" encoding="UTF-8"?><svg id="logo" xmlns="http://www.w3.org/2000/svg" viewBox="0 0 700 317.37"><defs><style>.cls-1{fill:#af1d41;}</style></defs><g id="red-nobg"><path class="cls-1" d="m241.18,107.71v30.36h-5.39l-14.67-20.82v20.82h-5.86v-30.36h5.81l14.24,20.09v-20.09h5.86Z"/><path class="cls-1" d="m268.37,128.54h-16.16c.23,1.74.93,3.11,2.12,4.13,1.18,1.01,2.7,1.52,4.55,1.52,1.14,0,2.24-.2,3.29-.6,1.05-.4,2.02-.97,2.91-1.71l2.52,3.63c-2.34,2-5.33,2.99-8.98,2.99-2.48,0-4.65-.47-6.5-1.41-1.85-.94-3.29-2.28-4.3-4.02-1.01-1.74-1.52-3.78-1.52-6.11s.48-4.3,1.45-6.05c.97-1.75,2.33-3.11,4.08-4.06,1.75-.95,3.78-1.43,6.09-1.43,3.28,0,5.86.96,7.74,2.89,1.88,1.92,2.82,4.57,2.82,7.93,0,.51-.04,1.28-.13,2.31Zm-5.3-3.85c-.03-1.54-.51-2.76-1.43-3.66-.93-.9-2.19-1.35-3.78-1.35-1.51,0-2.76.44-3.76,1.33-1,.88-1.62,2.11-1.88,3.68h10.86Z"/><path class="cls-1" d="m293.81,115.84v22.23h-5.64v-3.04c-1.54,2.31-3.93,3.46-7.18,3.46-2.74,0-4.8-.74-6.2-2.22-1.4-1.48-2.09-3.66-2.09-6.54v-13.9h5.77v13.38c0,3.16,1.34,4.75,4.02,4.75,1.11,0,2.17-.25,3.19-.75,1.01-.5,1.8-1.18,2.37-2.03v-15.35h5.77Z"/><path class="cls-1" d="m314.38,115.75v4.75h-.98c-3.22,0-5.69,1.71-7.4,5.13v12.44h-5.77v-22.23h5.64v4.4c.86-1.62,1.9-2.81,3.12-3.55,1.23-.74,2.55-1.11,3.98-1.11.6,0,1.07.06,1.41.17Z"/><path class="cls-1" d="m320.9,137.02c-1.78-.98-3.17-2.34-4.17-4.08-1-1.74-1.5-3.73-1.5-5.99s.5-4.25,1.5-5.99c1-1.74,2.39-3.1,4.17-4.08,1.78-.98,3.81-1.48,6.09-1.48s4.31.49,6.09,1.48c1.78.98,3.17,2.34,4.17,4.08,1,1.74,1.5,3.73,1.5,5.99s-.5,4.25-1.5,5.99c-1,1.74-2.39,3.1-4.17,4.08s-3.81,1.48-6.09,1.48-4.31-.49-6.09-1.48Zm10.35-4.92c1.1-1.33,1.65-3.04,1.65-5.15s-.55-3.83-1.65-5.15c-1.1-1.33-2.52-1.99-4.25-1.99s-3.16.66-4.25,1.99c-1.1,1.33-1.65,3.04-1.65,5.15s.55,3.83,1.65,5.15c1.1,1.33,2.52,1.99,4.25,1.99s3.16-.66,4.25-1.99Z"/><path class="cls-1" d="m345.69,137.94c-1.64-.37-3.09-.83-4.34-1.37l1.37-4.23c2.94,1.25,5.44,1.88,7.52,1.88,2.65,0,3.98-.84,3.98-2.52,0-.48-.14-.86-.41-1.13-.27-.27-.72-.53-1.35-.77-.63-.24-1.68-.58-3.16-1-1.65-.48-2.96-.95-3.93-1.41-.97-.46-1.75-1.1-2.33-1.95-.58-.84-.88-1.96-.88-3.36,0-2.22.75-3.89,2.27-5,1.51-1.11,3.69-1.67,6.54-1.67,1.54,0,3.02.14,4.45.43,1.42.29,2.66.66,3.72,1.11l-1.24,4.1c-2.65-.91-4.87-1.37-6.67-1.37-1.11,0-1.96.16-2.54.47-.58.31-.88.78-.88,1.41,0,.71.37,1.25,1.11,1.62.74.37,1.87.74,3.38,1.11.91.23,1.6.41,2.05.56,1.77.54,3.12,1.32,4.06,2.33.94,1.01,1.41,2.39,1.41,4.13,0,2.31-.81,4.08-2.44,5.32-1.62,1.24-3.88,1.86-6.75,1.86-1.65,0-3.3-.19-4.94-.56Z"/><path class="cls-1" d="m368.8,137.07c-1.8-.95-3.18-2.3-4.15-4.04-.97-1.74-1.45-3.76-1.45-6.07s.48-4.37,1.43-6.11c.95-1.74,2.32-3.08,4.08-4.02s3.83-1.41,6.2-1.41c1.54,0,3.01.21,4.4.64,1.4.43,2.62,1.04,3.68,1.84l-2.22,3.76c-.91-.63-1.82-1.09-2.71-1.39-.9-.3-1.85-.45-2.84-.45-1.91,0-3.41.64-4.51,1.92-1.1,1.28-1.65,3.02-1.65,5.22s.57,3.9,1.71,5.19c1.14,1.3,2.68,1.95,4.62,1.95,1,0,1.95-.15,2.84-.45.9-.3,1.8-.76,2.72-1.39l2.22,3.72c-1,.8-2.2,1.42-3.61,1.86-1.41.44-2.9.66-4.47.66-2.39,0-4.49-.48-6.28-1.43Z"/><path class="cls-1" d="m388.36,112.82c-.64-.61-.96-1.39-.96-2.33s.33-1.67.98-2.29c.66-.61,1.47-.92,2.44-.92s1.78.31,2.44.92c.66.61.98,1.38.98,2.29s-.32,1.72-.96,2.33c-.64.61-1.46.92-2.46.92s-1.82-.31-2.46-.92Zm-.41,3.01h5.77v22.23h-5.77v-22.23Z"/><path class="cls-1" d="m420.71,128.54h-16.16c.23,1.74.93,3.11,2.12,4.13,1.18,1.01,2.7,1.52,4.55,1.52,1.14,0,2.24-.2,3.29-.6,1.05-.4,2.02-.97,2.91-1.71l2.52,3.63c-2.34,2-5.33,2.99-8.98,2.99-2.48,0-4.65-.47-6.5-1.41-1.85-.94-3.29-2.28-4.3-4.02-1.01-1.74-1.52-3.78-1.52-6.11s.48-4.3,1.45-6.05c.97-1.75,2.33-3.11,4.08-4.06,1.75-.95,3.78-1.43,6.09-1.43,3.28,0,5.86.96,7.74,2.89,1.88,1.92,2.82,4.57,2.82,7.93,0,.51-.04,1.28-.13,2.31Zm-5.3-3.85c-.03-1.54-.51-2.76-1.43-3.66-.93-.9-2.19-1.35-3.78-1.35-1.51,0-2.76.44-3.76,1.33-1,.88-1.62,2.11-1.88,3.68h10.86Z"/><path class="cls-1" d="m444.35,117.63c1.4,1.48,2.09,3.66,2.09,6.54v13.9h-5.77v-13.38c0-1.6-.33-2.79-1-3.57-.67-.78-1.69-1.18-3.06-1.18-1.14,0-2.22.26-3.23.79-1.01.53-1.8,1.23-2.37,2.12v15.22h-5.77v-22.23h5.64v3.21c1.48-2.42,3.89-3.63,7.23-3.63,2.76,0,4.85.74,6.24,2.22Z"/><path class="cls-1" d="m456.11,137.07c-1.8-.95-3.18-2.3-4.15-4.04-.97-1.74-1.45-3.76-1.45-6.07s.48-4.37,1.43-6.11c.95-1.74,2.32-3.08,4.08-4.02s3.83-1.41,6.2-1.41c1.54,0,3.01.21,4.4.64,1.4.43,2.62,1.04,3.68,1.84l-2.22,3.76c-.91-.63-1.82-1.09-2.71-1.39-.9-.3-1.85-.45-2.84-.45-1.91,0-3.41.64-4.51,1.92-1.1,1.28-1.65,3.02-1.65,5.22s.57,3.9,1.71,5.19c1.14,1.3,2.68,1.95,4.62,1.95,1,0,1.95-.15,2.84-.45.9-.3,1.8-.76,2.72-1.39l2.22,3.72c-1,.8-2.2,1.42-3.61,1.86-1.41.44-2.9.66-4.47.66-2.39,0-4.49-.48-6.28-1.43Z"/><path class="cls-1" d="m493.69,128.54h-16.16c.23,1.74.93,3.11,2.12,4.13,1.18,1.01,2.7,1.52,4.55,1.52,1.14,0,2.24-.2,3.29-.6,1.05-.4,2.02-.97,2.91-1.71l2.52,3.63c-2.34,2-5.33,2.99-8.98,2.99-2.48,0-4.65-.47-6.5-1.41-1.85-.94-3.29-2.28-4.3-4.02-1.01-1.74-1.52-3.78-1.52-6.11s.48-4.3,1.45-6.05c.97-1.75,2.33-3.11,4.08-4.06,1.75-.95,3.78-1.43,6.09-1.43,3.28,0,5.86.96,7.74,2.89,1.88,1.92,2.82,4.57,2.82,7.93,0,.51-.04,1.28-.13,2.31Zm-5.3-3.85c-.03-1.54-.51-2.76-1.43-3.66-.93-.9-2.19-1.35-3.78-1.35-1.51,0-2.76.44-3.76,1.33-1,.88-1.62,2.11-1.88,3.68h10.86Z"/><path class="cls-1" d="m515.9,136.62c-2.32-1.25-4.1-3.06-5.34-5.41-1.24-2.35-1.86-5.12-1.86-8.32s.62-5.96,1.86-8.32c1.24-2.35,3.01-4.15,5.32-5.41,2.31-1.25,5.05-1.88,8.21-1.88,1.91,0,3.73.22,5.45.66,1.72.44,3.13,1.06,4.21,1.86l-2.1,4.4c-1-.63-2.14-1.13-3.42-1.5-1.28-.37-2.54-.56-3.76-.56-2.91,0-5.19.96-6.86,2.86-1.67,1.91-2.5,4.52-2.5,7.82s.84,5.96,2.52,7.89c1.68,1.92,3.98,2.89,6.88,2.89,2.31,0,4.69-.7,7.14-2.09l2.1,4.36c-1.14.8-2.57,1.43-4.28,1.9-1.71.47-3.49.71-5.34.71-3.16,0-5.91-.63-8.23-1.88Z"/><path class="cls-1" d="m557.52,128.54h-16.16c.23,1.74.93,3.11,2.12,4.13,1.18,1.01,2.7,1.52,4.55,1.52,1.14,0,2.24-.2,3.29-.6,1.05-.4,2.02-.97,2.91-1.71l2.52,3.63c-2.34,2-5.33,2.99-8.98,2.99-2.48,0-4.65-.47-6.5-1.41-1.85-.94-3.29-2.28-4.3-4.02-1.01-1.74-1.52-3.78-1.52-6.11s.48-4.3,1.45-6.05c.97-1.75,2.33-3.11,4.08-4.06,1.75-.95,3.78-1.43,6.09-1.43,3.28,0,5.86.96,7.74,2.89,1.88,1.92,2.82,4.57,2.82,7.93,0,.51-.04,1.28-.13,2.31Zm-5.3-3.85c-.03-1.54-.51-2.76-1.43-3.66-.93-.9-2.19-1.35-3.78-1.35-1.51,0-2.76.44-3.76,1.33-1,.88-1.62,2.11-1.88,3.68h10.86Z"/><path class="cls-1" d="m581.16,117.63c1.4,1.48,2.09,3.66,2.09,6.54v13.9h-5.77v-13.38c0-1.6-.33-2.79-1-3.57-.67-.78-1.69-1.18-3.06-1.18-1.14,0-2.22.26-3.23.79-1.01.53-1.8,1.23-2.37,2.12v15.22h-5.77v-22.23h5.64v3.21c1.48-2.42,3.89-3.63,7.23-3.63,2.76,0,4.85.74,6.24,2.22Z"/><path class="cls-1" d="m592.09,136.51c-1.04-1.21-1.56-3.28-1.56-6.22v-10.18h-3.63v-4.06h1.03c1.23,0,2.05-.22,2.48-.66.43-.44.64-1.28.64-2.5v-2.27h5.26v5.22h5.82v4.28h-5.82v10.86c0,1.05.19,1.82.58,2.29.39.47,1,.71,1.86.71,1,0,2.11-.28,3.33-.86l1.2,3.93c-1.54.86-3.49,1.28-5.86,1.28-2.51,0-4.28-.61-5.32-1.82Z"/><path class="cls-1" d="m627.04,128.54h-16.16c.23,1.74.93,3.11,2.12,4.13,1.18,1.01,2.7,1.52,4.55,1.52,1.14,0,2.24-.2,3.29-.6,1.05-.4,2.02-.97,2.91-1.71l2.52,3.63c-2.34,2-5.33,2.99-8.98,2.99-2.48,0-4.65-.47-6.5-1.41-1.85-.94-3.29-2.28-4.3-4.02-1.01-1.74-1.52-3.78-1.52-6.11s.48-4.3,1.45-6.05c.97-1.75,2.33-3.11,4.08-4.06,1.75-.95,3.78-1.43,6.09-1.43,3.28,0,5.86.96,7.74,2.89,1.88,1.92,2.82,4.57,2.82,7.93,0,.51-.04,1.28-.13,2.31Zm-5.3-3.85c-.03-1.54-.51-2.76-1.43-3.66-.93-.9-2.19-1.35-3.78-1.35-1.51,0-2.76.44-3.76,1.33-1,.88-1.62,2.11-1.88,3.68h10.86Z"/><path class="cls-1" d="m645.72,115.75v4.75h-.98c-3.22,0-5.69,1.71-7.4,5.13v12.44h-5.77v-22.23h5.64v4.4c.86-1.62,1.9-2.81,3.12-3.55,1.23-.74,2.55-1.11,3.98-1.11.6,0,1.07.06,1.41.17Z"/><path class="cls-1" d="m215.01,157.48h-2.65v-3.12h2.65v-.91c0-1.98.41-3.41,1.22-4.31.81-.89,2.11-1.34,3.9-1.34.67,0,1.37.07,2.11.2.74.14,1.43.32,2.08.55l-.87,2.93c-.92-.33-1.71-.5-2.37-.5s-1.14.17-1.42.51c-.28.34-.42.9-.42,1.67v1.19h4.24v3.28h-4.24v12.95h-4.21v-13.11Z"/><path class="cls-1" d="m228.57,169.82c-1.3-.72-2.31-1.71-3.04-2.98-.73-1.27-1.09-2.73-1.09-4.37s.36-3.1,1.09-4.37c.73-1.27,1.74-2.26,3.04-2.98,1.3-.72,2.78-1.08,4.45-1.08s3.15.36,4.45,1.08c1.3.72,2.31,1.71,3.04,2.98.73,1.27,1.09,2.73,1.09,4.37s-.36,3.1-1.09,4.37c-.73,1.27-1.74,2.26-3.04,2.98s-2.78,1.08-4.45,1.08-3.15-.36-4.45-1.08Zm7.55-3.59c.8-.97,1.2-2.22,1.2-3.76s-.4-2.79-1.2-3.76c-.8-.97-1.84-1.45-3.11-1.45s-2.3.48-3.11,1.45c-.8.97-1.2,2.22-1.2,3.76s.4,2.79,1.2,3.76c.8.97,1.84,1.45,3.11,1.45s2.3-.48,3.11-1.45Z"/><path class="cls-1" d="m255.21,154.29v3.46h-.72c-2.35,0-4.15,1.25-5.4,3.75v9.08h-4.21v-16.23h4.12v3.21c.62-1.19,1.38-2.05,2.28-2.59.89-.54,1.86-.81,2.9-.81.44,0,.78.04,1.03.12Z"/><path class="cls-1" d="m285.55,167.25v3.34h-.94c-1.23,0-2.19-.08-2.89-.25-.7-.17-1.3-.46-1.79-.89-.5-.43-1.04-1.1-1.62-2.01l-2.78-4.28c-.33-.52-.63-.87-.91-1.05-.27-.18-.65-.27-1.12-.27h-1.5v8.74h-4.62v-22.16h8.55c2.5,0,4.44.58,5.82,1.73,1.38,1.15,2.08,2.78,2.08,4.88,0,1.54-.44,2.85-1.31,3.92-.87,1.07-2.09,1.77-3.65,2.11.35.27.76.74,1.22,1.4l1.56,2.31c.52.79.93,1.35,1.22,1.67.29.32.59.54.89.64.3.1.71.16,1.23.16h.56Zm-9.61-8.65c1.16,0,2.08-.29,2.73-.87.66-.58.98-1.4.98-2.47s-.33-1.88-.98-2.47c-.66-.58-1.57-.87-2.73-.87h-3.93v6.68h3.93Z"/><path class="cls-1" d="m303.06,163.62h-11.8c.17,1.27.68,2.27,1.54,3.01.86.74,1.97,1.11,3.32,1.11.83,0,1.63-.15,2.4-.44.77-.29,1.48-.71,2.12-1.25l1.84,2.65c-1.71,1.46-3.89,2.18-6.55,2.18-1.81,0-3.39-.34-4.74-1.03-1.35-.69-2.4-1.66-3.14-2.93-.74-1.27-1.11-2.76-1.11-4.46s.35-3.14,1.06-4.42c.71-1.28,1.7-2.27,2.98-2.97,1.28-.7,2.76-1.05,4.45-1.05,2.39,0,4.28.7,5.65,2.11,1.37,1.4,2.06,3.33,2.06,5.79,0,.37-.03.94-.09,1.69Zm-3.87-2.81c-.02-1.12-.37-2.01-1.05-2.67-.68-.66-1.6-.98-2.76-.98-1.1,0-2.02.32-2.75.97-.73.65-1.19,1.54-1.37,2.68h7.93Z"/><path class="cls-1" d="m308.16,170.49c-1.2-.27-2.25-.6-3.17-1l1-3.09c2.14.92,3.97,1.37,5.49,1.37,1.93,0,2.9-.61,2.9-1.84,0-.35-.1-.63-.3-.83-.2-.2-.53-.38-.98-.56-.46-.18-1.23-.42-2.31-.73-1.21-.35-2.16-.7-2.87-1.03-.71-.33-1.27-.81-1.7-1.42-.43-.61-.64-1.43-.64-2.45,0-1.62.55-2.84,1.65-3.65,1.1-.81,2.69-1.22,4.78-1.22,1.12,0,2.21.1,3.25.31,1.04.21,1.95.48,2.72.81l-.91,3c-1.93-.67-3.56-1-4.87-1-.81,0-1.43.11-1.86.34-.43.23-.64.57-.64,1.03,0,.52.27.92.81,1.19.54.27,1.36.54,2.47.81.67.17,1.16.3,1.5.41,1.29.4,2.28.96,2.96,1.7.69.74,1.03,1.74,1.03,3.01,0,1.69-.59,2.98-1.78,3.89-1.19.91-2.83,1.36-4.93,1.36-1.21,0-2.41-.14-3.6-.41Z"/><path class="cls-1" d="m337.05,163.62h-11.8c.17,1.27.68,2.27,1.54,3.01.86.74,1.97,1.11,3.32,1.11.83,0,1.63-.15,2.4-.44.77-.29,1.48-.71,2.12-1.25l1.84,2.65c-1.71,1.46-3.89,2.18-6.55,2.18-1.81,0-3.39-.34-4.74-1.03-1.35-.69-2.4-1.66-3.14-2.93-.74-1.27-1.11-2.76-1.11-4.46s.35-3.14,1.06-4.42c.71-1.28,1.7-2.27,2.98-2.97,1.28-.7,2.76-1.05,4.45-1.05,2.39,0,4.28.7,5.65,2.11,1.37,1.4,2.06,3.33,2.06,5.79,0,.37-.03.94-.09,1.69Zm-3.87-2.81c-.02-1.12-.37-2.01-1.05-2.67-.68-.66-1.6-.98-2.76-.98-1.1,0-2.02.32-2.75.97-.73.65-1.19,1.54-1.37,2.68h7.93Z"/><path class="cls-1" d="m355.55,170.4c-.77.27-1.48.41-2.12.41-2,0-3.25-.73-3.75-2.18-.62.71-1.39,1.25-2.31,1.64-.92.38-1.91.58-3,.58-1.66,0-2.99-.43-3.96-1.3-.98-.86-1.47-2.03-1.47-3.51,0-1.75.89-3.07,2.67-3.98,1.78-.91,4.39-1.35,7.82-1.33v-.84c0-.92-.24-1.58-.72-2-.48-.42-1.26-.62-2.34-.62-1.56,0-3.32.51-5.27,1.53l-1.28-3.03c.85-.5,1.96-.91,3.31-1.23,1.35-.32,2.66-.48,3.93-.48,2.19,0,3.81.47,4.88,1.42,1.07.95,1.61,2.39,1.61,4.32v6.68c0,.65.31.97.94.97.37,0,.63-.03.78-.09l.28,3.06Zm-7.97-3.15c.72-.29,1.34-.69,1.86-1.19v-2.65c-1.75.08-3.06.21-3.93.37-.87.17-1.48.41-1.83.72-.34.31-.52.77-.52,1.37,0,1.21.73,1.81,2.19,1.81.77,0,1.51-.15,2.23-.44Z"/><path class="cls-1" d="m368.54,154.29v3.46h-.72c-2.35,0-4.15,1.25-5.4,3.75v9.08h-4.21v-16.23h4.12v3.21c.62-1.19,1.38-2.05,2.28-2.59.89-.54,1.86-.81,2.9-.81.44,0,.78.04,1.03.12Z"/><path class="cls-1" d="m373.25,169.85c-1.31-.7-2.32-1.68-3.03-2.95-.71-1.27-1.06-2.75-1.06-4.43s.35-3.19,1.05-4.46c.7-1.27,1.69-2.25,2.98-2.93,1.29-.69,2.8-1.03,4.53-1.03,1.12,0,2.19.16,3.21.47,1.02.31,1.91.76,2.68,1.34l-1.62,2.75c-.67-.46-1.33-.8-1.98-1.01s-1.35-.33-2.08-.33c-1.39,0-2.49.47-3.29,1.4-.8.94-1.2,2.21-1.2,3.81s.42,2.85,1.25,3.79c.83.95,1.96,1.42,3.37,1.42.73,0,1.42-.11,2.08-.33.66-.22,1.32-.56,1.98-1.01l1.62,2.72c-.73.58-1.61,1.04-2.64,1.36-1.03.32-2.12.48-3.26.48-1.75,0-3.28-.35-4.59-1.05Z"/><path class="cls-1" d="m401,155.67c1.02,1.08,1.53,2.67,1.53,4.78v10.14h-4.21v-9.77c0-1.17-.24-2.03-.73-2.61-.49-.57-1.23-.86-2.23-.86-.83,0-1.62.19-2.36.58-.74.39-1.32.9-1.73,1.55v11.11h-4.21v-22.16h4.21v8.11c1.12-1.66,2.85-2.5,5.18-2.5,2.02,0,3.54.54,4.56,1.62Z"/><path class="cls-1" d="m430.99,170.4c-.77.27-1.48.41-2.12.41-2,0-3.25-.73-3.75-2.18-.62.71-1.39,1.25-2.31,1.64-.92.38-1.91.58-3,.58-1.66,0-2.99-.43-3.96-1.3-.98-.86-1.47-2.03-1.47-3.51,0-1.75.89-3.07,2.67-3.98,1.78-.91,4.39-1.35,7.82-1.33v-.84c0-.92-.24-1.58-.72-2-.48-.42-1.26-.62-2.34-.62-1.56,0-3.32.51-5.27,1.53l-1.28-3.03c.85-.5,1.96-.91,3.31-1.23,1.35-.32,2.66-.48,3.93-.48,2.19,0,3.81.47,4.88,1.42,1.07.95,1.61,2.39,1.61,4.32v6.68c0,.65.31.97.94.97.37,0,.63-.03.78-.09l.28,3.06Zm-7.97-3.15c.72-.29,1.34-.69,1.86-1.19v-2.65c-1.75.08-3.06.21-3.93.37-.87.17-1.48.41-1.83.72-.34.31-.52.77-.52,1.37,0,1.21.73,1.81,2.19,1.81.77,0,1.51-.15,2.23-.44Z"/><path class="cls-1" d="m447.59,155.67c1.02,1.08,1.53,2.67,1.53,4.78v10.14h-4.21v-9.77c0-1.17-.25-2.03-.73-2.61-.49-.57-1.23-.86-2.23-.86-.83,0-1.62.19-2.36.58-.74.39-1.32.9-1.73,1.55v11.11h-4.21v-16.23h4.12v2.34c1.08-1.77,2.84-2.65,5.27-2.65,2.02,0,3.54.54,4.56,1.62Z"/><path class="cls-1" d="m468.57,148.43v22.16h-4.12v-1.53c-1.17,1.23-2.74,1.84-4.71,1.84-1.46,0-2.75-.35-3.89-1.05-1.13-.7-2.02-1.67-2.65-2.92-.63-1.25-.95-2.67-.95-4.28,0-1.71.36-3.21,1.08-4.51.72-1.3,1.74-2.31,3.06-3.03,1.32-.72,2.85-1.08,4.57-1.08,1.19,0,2.32.19,3.4.56v-6.18h4.21Zm-4.21,18.38v-8.93c-.89-.42-1.87-.62-2.93-.62-1.52,0-2.73.47-3.62,1.42-.89.95-1.34,2.21-1.34,3.79s.44,2.89,1.33,3.85c.88.97,2.06,1.45,3.54,1.45,1.21,0,2.22-.32,3.03-.97Z"/><path class="cls-1" d="m482.77,148.43h4.62v22.16h-4.62v-22.16Z"/><path class="cls-1" d="m506.8,155.67c1.02,1.08,1.53,2.67,1.53,4.78v10.14h-4.21v-9.77c0-1.17-.25-2.03-.73-2.61-.49-.57-1.23-.86-2.23-.86-.83,0-1.62.19-2.36.58-.74.39-1.32.9-1.73,1.55v11.11h-4.21v-16.23h4.12v2.34c1.08-1.77,2.84-2.65,5.27-2.65,2.02,0,3.54.54,4.56,1.62Z"/><path class="cls-1" d="m526.81,155.67c1.02,1.08,1.53,2.67,1.53,4.78v10.14h-4.21v-9.77c0-1.17-.25-2.03-.73-2.61-.49-.57-1.23-.86-2.23-.86-.83,0-1.62.19-2.36.58-.74.39-1.32.9-1.73,1.55v11.11h-4.21v-16.23h4.12v2.34c1.08-1.77,2.84-2.65,5.27-2.65,2.02,0,3.54.54,4.56,1.62Z"/><path class="cls-1" d="m535.44,169.82c-1.3-.72-2.31-1.71-3.04-2.98-.73-1.27-1.09-2.73-1.09-4.37s.36-3.1,1.09-4.37c.73-1.27,1.74-2.26,3.04-2.98,1.3-.72,2.78-1.08,4.45-1.08s3.15.36,4.45,1.08c1.3.72,2.31,1.71,3.04,2.98.73,1.27,1.09,2.73,1.09,4.37s-.36,3.1-1.09,4.37c-.73,1.27-1.74,2.26-3.04,2.98s-2.78,1.08-4.45,1.08-3.15-.36-4.45-1.08Zm7.55-3.59c.8-.97,1.2-2.22,1.2-3.76s-.4-2.79-1.2-3.76c-.8-.97-1.84-1.45-3.11-1.45s-2.3.48-3.11,1.45c-.8.97-1.2,2.22-1.2,3.76s.4,2.79,1.2,3.76c.8.97,1.84,1.45,3.11,1.45s2.3-.48,3.11-1.45Z"/><path class="cls-1" d="m565.95,154.36l-6.24,16.23h-4.37l-6.24-16.23h4.37l4.06,11.55,4.06-11.55h4.37Z"/><path class="cls-1" d="m583.8,170.4c-.77.27-1.48.41-2.12.41-2,0-3.25-.73-3.75-2.18-.62.71-1.39,1.25-2.31,1.64-.92.38-1.91.58-3,.58-1.66,0-2.99-.43-3.96-1.3-.98-.86-1.47-2.03-1.47-3.51,0-1.75.89-3.07,2.67-3.98,1.78-.91,4.39-1.35,7.82-1.33v-.84c0-.92-.24-1.58-.72-2-.48-.42-1.26-.62-2.34-.62-1.56,0-3.32.51-5.27,1.53l-1.28-3.03c.85-.5,1.96-.91,3.31-1.23,1.35-.32,2.66-.48,3.93-.48,2.19,0,3.81.47,4.88,1.42,1.07.95,1.61,2.39,1.61,4.32v6.68c0,.65.31.97.94.97.37,0,.63-.03.78-.09l.28,3.06Zm-7.97-3.15c.72-.29,1.34-.69,1.86-1.19v-2.65c-1.75.08-3.06.21-3.93.37-.87.17-1.48.41-1.83.72-.34.31-.52.77-.52,1.37,0,1.21.73,1.81,2.19,1.81.77,0,1.51-.15,2.23-.44Z"/><path class="cls-1" d="m588.37,169.45c-.76-.88-1.14-2.4-1.14-4.54v-7.43h-2.65v-2.97h.75c.89,0,1.5-.16,1.81-.48.31-.32.47-.93.47-1.83v-1.65h3.84v3.81h4.24v3.12h-4.24v7.93c0,.77.14,1.33.42,1.67s.73.51,1.36.51c.73,0,1.54-.21,2.43-.62l.87,2.87c-1.12.62-2.55.94-4.28.94-1.83,0-3.13-.44-3.89-1.33Z"/><path class="cls-1" d="m600.14,152.15c-.47-.45-.7-1.01-.7-1.7s.24-1.22.72-1.67c.48-.45,1.07-.67,1.78-.67s1.3.22,1.78.67c.48.45.72,1,.72,1.67s-.23,1.25-.7,1.7c-.47.45-1.07.67-1.79.67s-1.33-.22-1.79-.67Zm-.3,2.2h4.21v16.23h-4.21v-16.23Z"/><path class="cls-1" d="m611.78,169.82c-1.3-.72-2.31-1.71-3.04-2.98-.73-1.27-1.09-2.73-1.09-4.37s.36-3.1,1.09-4.37c.73-1.27,1.74-2.26,3.04-2.98,1.3-.72,2.78-1.08,4.45-1.08s3.15.36,4.45,1.08c1.3.72,2.31,1.71,3.04,2.98.73,1.27,1.09,2.73,1.09,4.37s-.36,3.1-1.09,4.37c-.73,1.27-1.74,2.26-3.04,2.98s-2.78,1.08-4.45,1.08-3.15-.36-4.45-1.08Zm7.55-3.59c.8-.97,1.2-2.22,1.2-3.76s-.4-2.79-1.2-3.76c-.8-.97-1.84-1.45-3.11-1.45s-2.3.48-3.11,1.45c-.8.97-1.2,2.22-1.2,3.76s.4,2.79,1.2,3.76c.8.97,1.84,1.45,3.11,1.45s2.3-.48,3.11-1.45Z"/><path class="cls-1" d="m642.04,155.67c1.02,1.08,1.53,2.67,1.53,4.78v10.14h-4.21v-9.77c0-1.17-.25-2.03-.73-2.61-.49-.57-1.23-.86-2.23-.86-.83,0-1.62.19-2.36.58-.74.39-1.32.9-1.73,1.55v11.11h-4.21v-16.23h4.12v2.34c1.08-1.77,2.84-2.65,5.27-2.65,2.02,0,3.54.54,4.56,1.62Z"/><path class="cls-1" d="m228.08,193.43v2.55c-.39-.05-.8-.07-1.23-.07s-.83.02-1.2.07c.67.87,1,1.99,1,3.38v8.04h-3.33v-7.97c0-.95-.26-1.67-.77-2.17-.51-.5-1.26-.75-2.24-.75s-1.73.25-2.24.75c-.51.5-.77,1.22-.77,2.17v2.3c.41-.57.9-1,1.47-1.27.57-.28,1.25-.42,2.03-.42h.59v2.6h-.59c-.96,0-1.72.13-2.28.39-.56.26-.96.69-1.23,1.3v3.06h-3.33v-8.04c0-1.76.54-3.11,1.63-4.04s2.66-1.4,4.72-1.4c1.57,0,2.87.28,3.9.83.42-.46.93-.79,1.51-1,.58-.21,1.27-.32,2.07-.32h.29Z"/><path class="cls-1" d="m220.3,213.91c-.66-.5-.99-1.16-.99-1.97v-.76h-1.1v-2.08h3.82v2.38c0,.34.08.61.25.8.16.19.39.28.69.28.28,0,.49-.09.65-.28.16-.19.23-.45.23-.8v-2.38h2.82v2.35c0,1-.33,1.78-.99,2.35-.66.57-1.57.86-2.73.86-1.09,0-1.97-.25-2.63-.75Z"/><path class="cls-1" d="m242.44,194.16v13.23h-3.24v-2.01c-.91,1.5-2.34,2.25-4.29,2.25-1.58,0-2.79-.44-3.63-1.32-.83-.88-1.25-2.17-1.25-3.87v-8.28h3.33v7.97c0,1.88.81,2.82,2.43,2.82.69,0,1.33-.16,1.94-.48.6-.32,1.07-.74,1.4-1.26v-9.04h3.31Z"/><path class="cls-1" d="m246.92,206.58c-1.1-.71-1.65-1.72-1.65-3.03,0-.91.25-1.65.75-2.19.5-.55,1.22-.9,2.17-1.07-.93-.16-1.65-.51-2.16-1.03-.51-.52-.76-1.17-.76-1.94,0-1.05.41-1.87,1.24-2.46.82-.6,1.95-.89,3.37-.89.69,0,1.32.09,1.91.27l-.25,2.3c-.36-.08-.73-.12-1.1-.12-.6,0-1.06.11-1.37.33-.31.22-.47.54-.47.97,0,.93.79,1.4,2.38,1.4h.88v2.3h-.59c-.96,0-1.65.13-2.06.4-.41.27-.61.71-.61,1.34s.26,1.09.77,1.42c.51.33,1.25.49,2.19.49,1.05,0,1.8-.22,2.27-.67.47-.45.7-1.18.7-2.19v-8.04h3.33v8.01c0,1.9-.5,3.28-1.49,4.15-1,.87-2.57,1.31-4.73,1.31-2.04,0-3.61-.36-4.72-1.07Z"/><path class="cls-1" d="m252.93,191.2c0-1.21.27-2.08.81-2.62.54-.54,1.41-.81,2.62-.81h3.36v2.4h-2.23c-.52,0-.9.11-1.13.34-.23.23-.34.6-.34,1.13v.44h-3.09v-.88Z"/><path class="cls-1" d="m262.32,207.32c-.88-.21-1.66-.5-2.33-.86l.98-2.38c1.31.67,2.48,1,3.5,1,1.09,0,1.95-.39,2.57-1.18.62-.78.93-1.87.93-3.26s-.29-2.39-.88-3.11c-.59-.72-1.45-1.08-2.57-1.08-.96,0-2.12.31-3.48.93l-.98-2.43c.59-.31,1.33-.56,2.22-.76.89-.2,1.74-.29,2.56-.29,2.07,0,3.67.58,4.79,1.74,1.12,1.16,1.68,2.82,1.68,4.98s-.57,3.91-1.72,5.15c-1.14,1.24-2.73,1.86-4.75,1.86-.8,0-1.64-.11-2.52-.32Z"/><path class="cls-1" d="m259.62,189.68h11.2v2.4h-11.2v-2.4Z"/><path class="cls-1" d="m283.52,195.57c1.18,1.1,1.76,2.7,1.76,4.79,0,1.47-.27,2.75-.81,3.84-.54,1.09-1.32,1.92-2.33,2.51-1.01.59-2.21.88-3.58.88-.59,0-1.22-.07-1.89-.22l-1.45-5.34h-1.74v-2.06h4.36l1.37,5.1c.83-.16,1.49-.64,1.98-1.43.49-.79.74-1.79.74-3,0-1.34-.33-2.36-.98-3.06-.65-.7-1.6-1.05-2.84-1.05-1.42,0-2.78.45-4.07,1.35l-1.2-2.35c1.5-1.06,3.35-1.59,5.54-1.59s3.95.55,5.12,1.65Z"/><path class="cls-1" d="m278.96,191.27c-.54-.54-.81-1.41-.81-2.62v-.66h3.09v.71c0,.34.1.59.29.75.2.16.51.23.93.23h5.64v2.4h-6.52c-1.21,0-2.08-.27-2.62-.81Z"/><path class="cls-1" d="m288.53,206.58c-1.1-.71-1.65-1.72-1.65-3.03,0-.91.25-1.65.75-2.19.5-.55,1.22-.9,2.17-1.07-.93-.16-1.65-.51-2.16-1.03-.51-.52-.76-1.17-.76-1.94,0-1.05.41-1.87,1.24-2.46.82-.6,1.95-.89,3.37-.89.69,0,1.32.09,1.91.27l-.25,2.3c-.36-.08-.73-.12-1.1-.12-.6,0-1.06.11-1.37.33-.31.22-.47.54-.47.97,0,.93.79,1.4,2.38,1.4h.88v2.3h-.59c-.96,0-1.65.13-2.06.4-.41.27-.61.71-.61,1.34s.26,1.09.77,1.42c.51.33,1.25.49,2.19.49,1.05,0,1.8-.22,2.27-.67.47-.45.7-1.18.7-2.19v-8.04h3.33v8.01c0,1.9-.5,3.28-1.49,4.15-1,.87-2.57,1.31-4.73,1.31-2.04,0-3.61-.36-4.72-1.07Z"/><path class="cls-1" d="m304.05,206.72c-.5-.53-.75-1.42-.75-2.66v-9.9h3.33v9.61c0,.41.07.7.22.87.15.17.39.26.74.26s.61-.02.81-.07l.2,2.43c-.64.18-1.32.27-2.06.27-1.16,0-1.99-.27-2.49-.8Zm7.03,0c-.5-.53-.75-1.42-.75-2.66v-9.9h3.33v9.61c0,.41.07.7.22.87.15.17.39.26.74.26s.61-.02.81-.07l.2,2.43c-.64.18-1.32.27-2.06.27-1.16,0-1.99-.27-2.49-.8Z"/><path class="cls-1" d="m327.37,195.12c1.01.8,1.52,1.96,1.52,3.48v8.8h-3.33v-5.59l-1.32-.02c-1.54,0-2.65.14-3.33.43-.69.29-1.03.76-1.03,1.41,0,.51.16.89.49,1.16.33.27.79.4,1.4.4.44,0,.96-.08,1.57-.25l.47,2.21c-.65.29-1.51.44-2.57.44-1.55,0-2.72-.37-3.5-1.1-.78-.74-1.18-1.68-1.18-2.84,0-1.41.61-2.45,1.84-3.15,1.23-.69,3.08-1.04,5.56-1.04l1.62.05v-.54c0-.87-.24-1.5-.72-1.9-.48-.4-1.25-.6-2.29-.6-.77,0-1.5.09-2.18.26-.69.17-1.43.46-2.23.87l-1.03-2.33c.82-.42,1.74-.76,2.78-.99,1.04-.24,2.07-.36,3.1-.36,1.91,0,3.37.4,4.39,1.2Z"/><path class="cls-1" d="m332.17,198.38c-.54-.54-.81-1.41-.81-2.62v-.66h3.09v.71c0,.34.1.59.29.75.2.16.51.23.93.23h2.97v2.4h-3.85c-1.21,0-2.08-.27-2.62-.81Zm0,6.86c-.54-.54-.81-1.41-.81-2.62v-.66h3.09v.71c0,.34.1.59.29.75.2.16.51.23.93.23h2.97v2.4h-3.85c-1.21,0-2.08-.27-2.62-.81Z"/><path class="cls-1" d="m353.42,194.16v13.23h-3.24v-2.01c-.91,1.5-2.34,2.25-4.29,2.25-1.58,0-2.79-.44-3.63-1.32-.83-.88-1.25-2.17-1.25-3.87v-8.28h3.33v7.97c0,1.88.81,2.82,2.43,2.82.69,0,1.33-.16,1.94-.48.6-.32,1.07-.74,1.4-1.26v-9.04h3.31Z"/><path class="cls-1" d="m358.02,207.32c-.88-.21-1.66-.5-2.33-.86l.98-2.38c1.31.67,2.48,1,3.5,1,1.09,0,1.95-.39,2.57-1.18.62-.78.93-1.87.93-3.26s-.29-2.39-.88-3.11c-.59-.72-1.45-1.08-2.57-1.08-.96,0-2.12.31-3.48.93l-.98-2.43c.59-.31,1.33-.56,2.22-.76.89-.2,1.74-.29,2.56-.29,2.07,0,3.67.58,4.79,1.74,1.12,1.16,1.68,2.82,1.68,4.98s-.57,3.91-1.72,5.15c-1.14,1.24-2.73,1.86-4.75,1.86-.8,0-1.64-.11-2.52-.32Z"/><path class="cls-1" d="m360.57,191.27c-.54-.54-.81-1.41-.81-2.62v-.66h3.09v.71c0,.34.1.59.29.75.2.16.51.23.93.23h5.64v2.4h-6.52c-1.21,0-2.08-.27-2.62-.81Z"/><path class="cls-1" d="m370.17,205.83c-.97-1.18-1.46-2.83-1.46-4.95,0-1.91.41-3.45,1.23-4.61.82-1.16,2-1.9,3.55-2.21l2.06,1.45,2.18-1.45c1.42.28,2.47.8,3.15,1.58.68.78,1.02,1.82,1.02,3.12v8.63h-3.33v-7.94c0-1.26-.43-2.06-1.3-2.4l-1.49.88h-.34l-1.59-.98c-.57.26-1.01.73-1.31,1.41-.3.68-.45,1.52-.45,2.54,0,1.31.25,2.32.74,3.05.49.73,1.18,1.09,2.08,1.09.31,0,.74-.07,1.27-.22l.64,2.23c-.67.36-1.51.54-2.52.54-1.76,0-3.13-.59-4.11-1.76Z"/><path class="cls-1" d="m395.95,195.38c1.09.97,1.63,2.37,1.63,4.18v7.84h-3.33v-8.01c0-.91-.28-1.62-.85-2.12-.56-.5-1.37-.75-2.41-.75-.93,0-1.66.18-2.18.54-.52.36-.82.87-.88,1.54h3.01v2.01h-1.57c-.21.25-.36.56-.45.94-.09.38-.14.89-.14,1.53v4.31h-3.33v-3.31c0-1.49.49-2.65,1.47-3.48h-2.13v-.86c0-1.9.55-3.34,1.65-4.34,1.1-1,2.71-1.5,4.82-1.5s3.61.49,4.69,1.46Z"/><path class="cls-1" d="m402.53,207.34c-.98-.2-1.8-.47-2.45-.8l.76-2.52c1.67.72,3.18,1.08,4.53,1.08.78,0,1.36-.12,1.73-.36.37-.24.55-.59.55-1.07,0-.36-.1-.65-.31-.86-.2-.21-.5-.39-.88-.54-.38-.15-.96-.32-1.73-.51-.92-.25-1.67-.51-2.25-.78-.59-.28-1.07-.67-1.43-1.18-.37-.51-.55-1.18-.55-2.01,0-1.27.46-2.24,1.37-2.89.91-.65,2.26-.98,4.04-.98.83,0,1.67.08,2.51.25.84.16,1.56.38,2.14.64l-.74,2.4c-1.55-.49-2.86-.74-3.92-.74-1.39,0-2.08.38-2.08,1.13,0,.46.22.8.67,1.03.45.23,1.14.47,2.07.71.52.13.91.24,1.15.32,1.06.33,1.87.78,2.43,1.37.56.59.83,1.4.83,2.43,0,1.34-.48,2.37-1.43,3.1-.96.73-2.32,1.09-4.08,1.09-.98,0-1.96-.1-2.94-.31Z"/><path class="cls-1" d="m415.45,207.34c-.98-.2-1.8-.47-2.45-.8l.76-2.52c1.67.72,3.18,1.08,4.53,1.08.78,0,1.36-.12,1.73-.36.37-.24.55-.59.55-1.07,0-.36-.1-.65-.31-.86-.2-.21-.5-.39-.88-.54-.38-.15-.96-.32-1.73-.51-.92-.25-1.67-.51-2.25-.78-.59-.28-1.07-.67-1.43-1.18-.37-.51-.55-1.18-.55-2.01,0-1.27.46-2.24,1.37-2.89.91-.65,2.26-.98,4.04-.98.83,0,1.67.08,2.51.25.84.16,1.56.38,2.14.64l-.74,2.4c-1.55-.49-2.86-.74-3.92-.74-1.39,0-2.08.38-2.08,1.13,0,.46.22.8.67,1.03.45.23,1.14.47,2.07.71.52.13.91.24,1.15.32,1.06.33,1.87.78,2.43,1.37.56.59.83,1.4.83,2.43,0,1.34-.48,2.37-1.43,3.1-.96.73-2.32,1.09-4.08,1.09-.98,0-1.96-.1-2.94-.31Z"/><path class="cls-1" d="m439.17,194.16v8.28c0,1.7-.42,2.99-1.25,3.87-.83.88-2.04,1.32-3.63,1.32-1.96,0-3.4-.77-4.31-2.3v2.06h-3.21v-13.23h3.31v9.04c.33.52.79.94,1.4,1.26.6.32,1.25.48,1.94.48,1.62,0,2.43-.94,2.43-2.82v-7.97h3.33Z"/><path class="cls-1" d="m454.86,190v12.45c0,1.6-.56,2.87-1.68,3.8s-2.64,1.4-4.57,1.4-3.42-.47-4.51-1.4c-1.09-.93-1.64-2.2-1.64-3.8v-8.28h3.33v8.06c0,.87.25,1.55.76,2.06.51.51,1.19.76,2.06.76s1.61-.25,2.13-.76c.52-.51.78-1.19.78-2.06v-12.23h3.33Z"/><path class="cls-1" d="m459.88,207.34c-.98-.2-1.8-.47-2.45-.8l.76-2.52c1.67.72,3.18,1.08,4.53,1.08.78,0,1.36-.12,1.73-.36.37-.24.55-.59.55-1.07,0-.36-.1-.65-.31-.86-.2-.21-.5-.39-.88-.54-.38-.15-.96-.32-1.73-.51-.92-.25-1.67-.51-2.25-.78-.59-.28-1.07-.67-1.43-1.18-.37-.51-.55-1.18-.55-2.01,0-1.27.46-2.24,1.37-2.89.91-.65,2.26-.98,4.04-.98.83,0,1.67.08,2.51.25.84.16,1.56.38,2.14.64l-.74,2.4c-1.55-.49-2.86-.74-3.92-.74-1.39,0-2.08.38-2.08,1.13,0,.46.22.8.67,1.03.45.23,1.14.47,2.07.71.52.13.91.24,1.15.32,1.06.33,1.87.78,2.43,1.37.56.59.83,1.4.83,2.43,0,1.34-.48,2.37-1.43,3.1-.96.73-2.32,1.09-4.08,1.09-.98,0-1.96-.1-2.94-.31Z"/><path class="cls-1" d="m471.08,198.38c-.54-.54-.81-1.41-.81-2.62v-.66h3.09v.71c0,.34.1.59.29.75.2.16.51.23.93.23h2.97v2.4h-3.85c-1.21,0-2.08-.27-2.62-.81Zm0,6.86c-.54-.54-.81-1.41-.81-2.62v-.66h3.09v.71c0,.34.1.59.29.75.2.16.51.23.93.23h2.97v2.4h-3.85c-1.21,0-2.08-.27-2.62-.81Z"/><path class="cls-1" d="m493.48,193.43v2.55c-.39-.05-.8-.07-1.23-.07-.6,0-1.15.05-1.64.15.59.59.88,1.52.88,2.79v8.55h-3.33v-5.61h-1.32c-1.55,0-2.67.14-3.35.43-.68.29-1.02.76-1.02,1.43,0,.49.16.87.49,1.14.33.27.79.4,1.4.4.44,0,.96-.08,1.57-.25l.47,2.21c-.65.29-1.51.44-2.57.44-1.45,0-2.6-.35-3.43-1.04-.83-.69-1.25-1.65-1.25-2.88,0-1.42.61-2.48,1.83-3.17,1.22-.69,3.08-1.04,5.6-1.04.67,0,1.2,0,1.59.02v-.51c0-.87-.24-1.5-.72-1.9-.48-.4-1.25-.6-2.29-.6-.77,0-1.5.09-2.18.26-.69.17-1.43.46-2.23.87l-1.03-2.33c.78-.41,1.68-.74,2.7-.98,1.01-.25,2-.37,2.97-.37,1.83,0,3.19.34,4.09,1,.42-.51.94-.88,1.54-1.13.6-.25,1.33-.37,2.18-.37h.29Z"/><path class="cls-1" d="m499.41,198.35c0-1.29-.67-1.94-2.01-1.94-.75,0-1.7.24-2.84.71l-.69-2.43c1.34-.52,2.72-.78,4.14-.78,1.62,0,2.81.36,3.58,1.09.77.73,1.15,1.86,1.15,3.39v8.99h-3.33v-9.04Z"/><path class="cls-1" d="m517.25,195.24c.83.88,1.25,2.17,1.25,3.87v8.28h-3.33v-7.97c0-1.88-.79-2.82-2.38-2.82-.7,0-1.36.16-1.97.48s-1.08.74-1.41,1.26v9.04h-3.31v-13.23h3.21v1.62c.96-1.24,2.38-1.86,4.26-1.86,1.62,0,2.84.44,3.68,1.32Z"/><path class="cls-1" d="m522.96,207.32c-.88-.21-1.66-.5-2.33-.86l.98-2.38c1.31.67,2.48,1,3.5,1,1.09,0,1.95-.39,2.57-1.18.62-.78.93-1.87.93-3.26s-.29-2.39-.88-3.11c-.59-.72-1.45-1.08-2.57-1.08-.96,0-2.12.31-3.48.93l-.98-2.43c.59-.31,1.33-.56,2.22-.76.89-.2,1.74-.29,2.56-.29,2.07,0,3.67.58,4.79,1.74,1.12,1.16,1.68,2.82,1.68,4.98s-.57,3.91-1.72,5.15c-1.14,1.24-2.73,1.86-4.75,1.86-.8,0-1.64-.11-2.52-.32Z"/><path class="cls-1" d="m520.27,189.68h11.2v2.4h-11.2v-2.4Z"/><path class="cls-1" d="m545.76,195.24c.83.88,1.25,2.17,1.25,3.87v8.28h-3.33v-7.97c0-1.88-.79-2.82-2.38-2.82-.7,0-1.36.16-1.97.48s-1.08.74-1.41,1.26v9.04h-3.31v-13.23h3.21v1.62c.96-1.24,2.38-1.86,4.26-1.86,1.62,0,2.84.44,3.68,1.32Z"/><path class="cls-1" d="m551.33,206.58c-1.1-.71-1.65-1.72-1.65-3.03,0-.91.25-1.65.75-2.19.5-.55,1.22-.9,2.17-1.07-.93-.16-1.65-.51-2.16-1.03-.51-.52-.76-1.17-.76-1.94,0-1.05.41-1.87,1.24-2.46.82-.6,1.95-.89,3.37-.89.69,0,1.32.09,1.91.27l-.25,2.3c-.36-.08-.73-.12-1.1-.12-.6,0-1.06.11-1.37.33-.31.22-.47.54-.47.97,0,.93.79,1.4,2.38,1.4h.88v2.3h-.59c-.96,0-1.65.13-2.06.4-.41.27-.61.71-.61,1.34s.26,1.09.77,1.42c.51.33,1.25.49,2.19.49,1.05,0,1.8-.22,2.27-.67.47-.45.7-1.18.7-2.19v-8.04h3.33v8.01c0,1.9-.5,3.28-1.49,4.15-1,.87-2.57,1.31-4.73,1.31-2.04,0-3.61-.36-4.72-1.07Z"/><path class="cls-1" d="m569.6,198.35c0-1.29-.67-1.94-2.01-1.94-.75,0-1.7.24-2.84.71l-.69-2.43c1.34-.52,2.72-.78,4.14-.78,1.62,0,2.81.36,3.58,1.09.77.73,1.15,1.86,1.15,3.39v8.99h-3.33v-9.04Z"/><path class="cls-1" d="m590.19,193.43v2.55c-.39-.05-.8-.07-1.23-.07s-.83.02-1.2.07c.67.87,1,1.99,1,3.38v8.04h-3.33v-7.97c0-.95-.26-1.67-.77-2.17-.51-.5-1.26-.75-2.24-.75s-1.73.25-2.24.75c-.51.5-.77,1.22-.77,2.17v2.3c.41-.57.9-1,1.47-1.27.57-.28,1.25-.42,2.03-.42h.59v2.6h-.59c-.96,0-1.72.13-2.28.39-.56.26-.96.69-1.23,1.3v3.06h-3.33v-8.04c0-1.76.54-3.11,1.63-4.04s2.66-1.4,4.72-1.4c1.57,0,2.87.28,3.9.83.42-.46.93-.79,1.51-1,.58-.21,1.27-.32,2.07-.32h.29Z"/><path class="cls-1" d="m596.19,198.35c0-1.29-.67-1.94-2.01-1.94-.75,0-1.7.24-2.84.71l-.69-2.43c1.34-.52,2.72-.78,4.14-.78,1.62,0,2.81.36,3.58,1.09.77.73,1.15,1.86,1.15,3.39v8.99h-3.33v-9.04Z"/><path class="cls-1" d="m616.29,193.43v2.55c-.39-.05-.8-.07-1.23-.07-.6,0-1.15.05-1.64.15.59.59.88,1.52.88,2.79v8.55h-3.33v-5.61h-1.32c-1.55,0-2.67.14-3.35.43-.68.29-1.02.76-1.02,1.43,0,.49.16.87.49,1.14.33.27.79.4,1.4.4.44,0,.96-.08,1.57-.25l.47,2.21c-.65.29-1.51.44-2.57.44-1.45,0-2.6-.35-3.43-1.04-.83-.69-1.25-1.65-1.25-2.88,0-1.42.61-2.48,1.83-3.17,1.22-.69,3.08-1.04,5.6-1.04.67,0,1.2,0,1.59.02v-.51c0-.87-.24-1.5-.72-1.9-.48-.4-1.25-.6-2.29-.6-.77,0-1.5.09-2.18.26-.69.17-1.43.46-2.23.87l-1.03-2.33c.78-.41,1.68-.74,2.7-.98,1.01-.25,2-.37,2.97-.37,1.83,0,3.19.34,4.09,1,.42-.51.94-.88,1.54-1.13.6-.25,1.33-.37,2.18-.37h.29Z"/><path class="cls-1" d="m618.83,205.83c-.97-1.18-1.46-2.83-1.46-4.95,0-1.91.41-3.45,1.23-4.61.82-1.16,2-1.9,3.55-2.21l2.06,1.45,2.18-1.45c1.42.28,2.47.8,3.15,1.58.68.78,1.02,1.82,1.02,3.12v8.63h-3.33v-7.94c0-1.26-.43-2.06-1.3-2.4l-1.49.88h-.34l-1.59-.98c-.57.26-1.01.73-1.31,1.41-.3.68-.45,1.52-.45,2.54,0,1.31.25,2.32.74,3.05.49.73,1.18,1.09,2.08,1.09.31,0,.74-.07,1.27-.22l.64,2.23c-.67.36-1.51.54-2.52.54-1.76,0-3.13-.59-4.11-1.76Z"/><path class="cls-1" d="m635.55,207.34c-.98-.2-1.8-.47-2.45-.8l.76-2.52c1.67.72,3.18,1.08,4.53,1.08.78,0,1.36-.12,1.73-.36.37-.24.55-.59.55-1.07,0-.36-.1-.65-.31-.86-.2-.21-.5-.39-.88-.54-.38-.15-.96-.32-1.73-.51-.92-.25-1.67-.51-2.25-.78-.59-.28-1.07-.67-1.43-1.18-.37-.51-.55-1.18-.55-2.01,0-1.27.46-2.24,1.37-2.89.91-.65,2.26-.98,4.04-.98.83,0,1.67.08,2.51.25.84.16,1.56.38,2.14.64l-.74,2.4c-1.55-.49-2.86-.74-3.92-.74-1.39,0-2.08.38-2.08,1.13,0,.46.22.8.67,1.03.45.23,1.14.47,2.07.71.52.13.91.24,1.15.32,1.06.33,1.87.78,2.43,1.37.56.59.83,1.4.83,2.43,0,1.34-.48,2.37-1.43,3.1-.96.73-2.32,1.09-4.08,1.09-.98,0-1.96-.1-2.94-.31Z"/><path class="cls-1" d="m638.81,191.2c0-1.21.27-2.08.81-2.62.54-.54,1.41-.81,2.62-.81h3.36v2.4h-2.23c-.52,0-.9.11-1.13.34-.23.23-.34.6-.34,1.13v.44h-3.09v-.88Z"/><polygon class="cls-1" points="181.92 89.69 181.92 155.46 139.7 155.46 139.7 77.73 133.68 77.73 133.68 143.51 115.58 143.51 115.58 53.81 157.8 53.81 157.8 137.52 163.83 137.52 163.83 89.69 181.92 89.69"/><polygon class="cls-1" points="187.95 185.36 187.95 263.09 157.8 263.09 157.8 185.36 151.77 185.36 151.77 233.19 139.7 233.19 139.7 161.44 169.86 161.44 169.86 227.21 175.89 227.21 175.89 185.36 187.95 185.36"/><polygon class="cls-1" points="109.55 53.81 109.55 179.38 79.4 179.38 79.4 137.52 73.37 137.52 73.37 209.28 55.27 209.28 55.27 89.69 85.43 89.69 85.43 125.56 91.46 125.56 91.46 53.81 109.55 53.81"/><polygon class="cls-1" points="133.68 149.48 133.68 251.13 97.49 251.13 97.49 209.28 91.46 209.28 91.46 233.19 79.39 233.19 79.39 185.36 109.55 185.36 109.55 221.23 115.58 221.23 115.58 149.48 133.68 149.48"/></g></svg>