<?xml version="1.0" encoding="UTF-8"?><svg id="Layer_2" xmlns="http://www.w3.org/2000/svg" viewBox="0 0 700 317.37"><defs><style>.cls-1{fill:#ebebeb;}</style></defs><g id="white-nobg"><path class="cls-1" d="m199.14,100.02v36.24h-6.43l-17.51-24.86v24.86h-6.99v-36.24h6.94l17,23.99v-23.99h6.99Z"/><path class="cls-1" d="m231.6,124.88h-19.29c.27,2.08,1.11,3.72,2.53,4.93,1.41,1.21,3.22,1.81,5.44,1.81,1.36,0,2.67-.24,3.93-.71,1.26-.48,2.42-1.16,3.47-2.04l3.01,4.34c-2.79,2.38-6.36,3.57-10.72,3.57-2.96,0-5.55-.56-7.76-1.68-2.21-1.12-3.92-2.72-5.13-4.8-1.21-2.08-1.81-4.51-1.81-7.3s.58-5.13,1.74-7.22c1.16-2.09,2.78-3.71,4.87-4.85,2.09-1.14,4.52-1.71,7.27-1.71,3.91,0,6.99,1.15,9.24,3.45,2.25,2.3,3.37,5.45,3.37,9.47,0,.61-.05,1.53-.15,2.76Zm-6.33-4.59c-.03-1.84-.6-3.29-1.71-4.36-1.11-1.07-2.61-1.61-4.52-1.61-1.8,0-3.3.53-4.49,1.58-1.19,1.06-1.94,2.52-2.25,4.39h12.96Z"/><path class="cls-1" d="m261.97,109.72v26.54h-6.74v-3.62c-1.84,2.76-4.7,4.13-8.57,4.13-3.27,0-5.73-.88-7.4-2.65-1.67-1.77-2.5-4.37-2.5-7.81v-16.59h6.89v15.98c0,3.78,1.6,5.67,4.8,5.67,1.33,0,2.59-.3,3.8-.89,1.21-.59,2.15-1.4,2.83-2.42v-18.32h6.89Z"/><path class="cls-1" d="m286.52,109.62v5.67h-1.17c-3.85,0-6.79,2.04-8.83,6.12v14.85h-6.89v-26.54h6.74v5.26c1.02-1.94,2.26-3.35,3.73-4.24,1.46-.88,3.05-1.33,4.75-1.33.71,0,1.28.07,1.68.2Z"/><path class="cls-1" d="m294.3,135.01c-2.13-1.17-3.79-2.8-4.98-4.87-1.19-2.08-1.79-4.46-1.79-7.15s.59-5.07,1.79-7.15c1.19-2.08,2.85-3.7,4.98-4.87,2.13-1.17,4.55-1.76,7.27-1.76s5.15.59,7.27,1.76c2.13,1.17,3.79,2.8,4.98,4.87,1.19,2.08,1.79,4.46,1.79,7.15s-.6,5.07-1.79,7.15c-1.19,2.08-2.85,3.7-4.98,4.87s-4.55,1.76-7.27,1.76-5.15-.59-7.27-1.76Zm12.35-5.87c1.31-1.58,1.97-3.63,1.97-6.15s-.66-4.57-1.97-6.15c-1.31-1.58-3-2.37-5.08-2.37s-3.77.79-5.08,2.37c-1.31,1.58-1.97,3.63-1.97,6.15s.66,4.57,1.97,6.15c1.31,1.58,3,2.37,5.08,2.37s3.77-.79,5.08-2.37Z"/><path class="cls-1" d="m323.91,136.11c-1.96-.44-3.68-.99-5.18-1.63l1.63-5.05c3.5,1.5,6.5,2.25,8.98,2.25,3.16,0,4.75-1,4.75-3.01,0-.58-.16-1.03-.48-1.35-.32-.32-.86-.63-1.61-.92-.75-.29-2.01-.69-3.78-1.2-1.97-.58-3.54-1.14-4.7-1.68-1.16-.54-2.08-1.32-2.78-2.32-.7-1-1.05-2.34-1.05-4.01,0-2.65.9-4.64,2.71-5.97,1.8-1.33,4.41-1.99,7.81-1.99,1.84,0,3.61.17,5.31.51,1.7.34,3.18.78,4.44,1.33l-1.48,4.9c-3.16-1.09-5.82-1.63-7.96-1.63-1.33,0-2.34.19-3.04.56-.7.37-1.05.94-1.05,1.68,0,.85.44,1.5,1.33,1.94.88.44,2.23.89,4.03,1.33,1.09.27,1.91.49,2.45.66,2.11.65,3.73,1.57,4.85,2.78,1.12,1.21,1.68,2.85,1.68,4.93,0,2.76-.97,4.87-2.91,6.35-1.94,1.48-4.63,2.22-8.06,2.22-1.97,0-3.94-.22-5.9-.66Z"/><path class="cls-1" d="m351.49,135.06c-2.14-1.14-3.79-2.75-4.95-4.82-1.16-2.08-1.74-4.49-1.74-7.25s.57-5.22,1.71-7.3c1.14-2.08,2.76-3.67,4.87-4.8s4.58-1.68,7.4-1.68c1.84,0,3.59.26,5.26.77,1.67.51,3.13,1.24,4.39,2.19l-2.65,4.49c-1.09-.75-2.17-1.3-3.24-1.66-1.07-.36-2.2-.54-3.39-.54-2.28,0-4.08.77-5.39,2.3-1.31,1.53-1.97,3.61-1.97,6.23s.68,4.65,2.04,6.2c1.36,1.55,3.2,2.32,5.51,2.32,1.19,0,2.32-.18,3.39-.54,1.07-.36,2.15-.91,3.24-1.66l2.65,4.44c-1.19.95-2.63,1.69-4.31,2.22-1.68.53-3.46.79-5.33.79-2.86,0-5.36-.57-7.5-1.71Z"/><path class="cls-1" d="m374.84,106.12c-.76-.73-1.15-1.66-1.15-2.78s.39-2,1.17-2.73c.78-.73,1.75-1.1,2.91-1.1s2.13.37,2.91,1.1c.78.73,1.17,1.64,1.17,2.73s-.38,2.05-1.15,2.78c-.77.73-1.74,1.1-2.93,1.1s-2.17-.37-2.94-1.1Zm-.48,3.6h6.89v26.54h-6.89v-26.54Z"/><path class="cls-1" d="m413.45,124.88h-19.29c.27,2.08,1.11,3.72,2.53,4.93,1.41,1.21,3.22,1.81,5.44,1.81,1.36,0,2.67-.24,3.93-.71,1.26-.48,2.42-1.16,3.47-2.04l3.01,4.34c-2.79,2.38-6.36,3.57-10.72,3.57-2.96,0-5.55-.56-7.76-1.68-2.21-1.12-3.92-2.72-5.13-4.8-1.21-2.08-1.81-4.51-1.81-7.3s.58-5.13,1.74-7.22c1.16-2.09,2.78-3.71,4.87-4.85,2.09-1.14,4.52-1.71,7.27-1.71,3.91,0,6.99,1.15,9.24,3.45,2.25,2.3,3.37,5.45,3.37,9.47,0,.61-.05,1.53-.15,2.76Zm-6.33-4.59c-.03-1.84-.6-3.29-1.71-4.36-1.11-1.07-2.61-1.61-4.52-1.61-1.8,0-3.3.53-4.49,1.58-1.19,1.06-1.94,2.52-2.25,4.39h12.96Z"/><path class="cls-1" d="m441.68,111.86c1.67,1.77,2.5,4.37,2.5,7.81v16.59h-6.89v-15.98c0-1.91-.4-3.33-1.2-4.26-.8-.94-2.02-1.4-3.65-1.4-1.36,0-2.65.31-3.85.94-1.21.63-2.15,1.47-2.83,2.53v18.17h-6.89v-26.54h6.74v3.83c1.77-2.89,4.65-4.34,8.63-4.34,3.3,0,5.78.89,7.45,2.65Z"/><path class="cls-1" d="m455.71,135.06c-2.14-1.14-3.79-2.75-4.95-4.82-1.16-2.08-1.74-4.49-1.74-7.25s.57-5.22,1.71-7.3c1.14-2.08,2.76-3.67,4.87-4.8s4.58-1.68,7.4-1.68c1.84,0,3.59.26,5.26.77,1.67.51,3.13,1.24,4.39,2.19l-2.65,4.49c-1.09-.75-2.17-1.3-3.24-1.66-1.07-.36-2.2-.54-3.39-.54-2.28,0-4.08.77-5.39,2.3-1.31,1.53-1.97,3.61-1.97,6.23s.68,4.65,2.04,6.2c1.36,1.55,3.2,2.32,5.51,2.32,1.19,0,2.32-.18,3.39-.54,1.07-.36,2.15-.91,3.24-1.66l2.65,4.44c-1.19.95-2.63,1.69-4.31,2.22-1.68.53-3.46.79-5.33.79-2.86,0-5.36-.57-7.5-1.71Z"/><path class="cls-1" d="m500.58,124.88h-19.29c.27,2.08,1.11,3.72,2.53,4.93,1.41,1.21,3.22,1.81,5.44,1.81,1.36,0,2.67-.24,3.93-.71,1.26-.48,2.42-1.16,3.47-2.04l3.01,4.34c-2.79,2.38-6.36,3.57-10.72,3.57-2.96,0-5.55-.56-7.76-1.68-2.21-1.12-3.92-2.72-5.13-4.8-1.21-2.08-1.81-4.51-1.81-7.3s.58-5.13,1.74-7.22c1.16-2.09,2.78-3.71,4.87-4.85,2.09-1.14,4.52-1.71,7.27-1.71,3.91,0,6.99,1.15,9.24,3.45,2.25,2.3,3.37,5.45,3.37,9.47,0,.61-.05,1.53-.15,2.76Zm-6.33-4.59c-.03-1.84-.6-3.29-1.71-4.36-1.11-1.07-2.61-1.61-4.52-1.61-1.8,0-3.3.53-4.49,1.58-1.19,1.06-1.94,2.52-2.25,4.39h12.96Z"/><path class="cls-1" d="m527.09,134.52c-2.77-1.5-4.9-3.65-6.38-6.46-1.48-2.81-2.22-6.12-2.22-9.93s.74-7.12,2.22-9.93c1.48-2.81,3.6-4.96,6.35-6.46,2.76-1.5,6.02-2.25,9.8-2.25,2.28,0,4.45.26,6.51.79,2.06.53,3.73,1.27,5.03,2.22l-2.5,5.26c-1.19-.75-2.55-1.34-4.08-1.79-1.53-.44-3.03-.66-4.49-.66-3.47,0-6.2,1.14-8.19,3.42-1.99,2.28-2.99,5.39-2.99,9.34s1,7.12,3.01,9.42c2.01,2.3,4.75,3.45,8.22,3.45,2.76,0,5.6-.83,8.52-2.5l2.5,5.21c-1.36.95-3.06,1.71-5.1,2.27-2.04.56-4.17.84-6.38.84-3.78,0-7.05-.75-9.83-2.25Z"/><path class="cls-1" d="m576.78,124.88h-19.29c.27,2.08,1.11,3.72,2.53,4.93,1.41,1.21,3.22,1.81,5.44,1.81,1.36,0,2.67-.24,3.93-.71,1.26-.48,2.42-1.16,3.47-2.04l3.01,4.34c-2.79,2.38-6.36,3.57-10.72,3.57-2.96,0-5.55-.56-7.76-1.68-2.21-1.12-3.92-2.72-5.13-4.8-1.21-2.08-1.81-4.51-1.81-7.3s.58-5.13,1.74-7.22c1.16-2.09,2.78-3.71,4.87-4.85,2.09-1.14,4.52-1.71,7.27-1.71,3.91,0,6.99,1.15,9.24,3.45,2.25,2.3,3.37,5.45,3.37,9.47,0,.61-.05,1.53-.15,2.76Zm-6.33-4.59c-.03-1.84-.6-3.29-1.71-4.36-1.11-1.07-2.61-1.61-4.52-1.61-1.8,0-3.3.53-4.49,1.58-1.19,1.06-1.94,2.52-2.25,4.39h12.96Z"/><path class="cls-1" d="m605.01,111.86c1.67,1.77,2.5,4.37,2.5,7.81v16.59h-6.89v-15.98c0-1.91-.4-3.33-1.2-4.26-.8-.94-2.02-1.4-3.65-1.4-1.36,0-2.65.31-3.85.94-1.21.63-2.15,1.47-2.83,2.53v18.17h-6.89v-26.54h6.74v3.83c1.77-2.89,4.65-4.34,8.63-4.34,3.3,0,5.78.89,7.45,2.65Z"/><path class="cls-1" d="m618.05,134.4c-1.24-1.45-1.86-3.92-1.86-7.43v-12.15h-4.34v-4.85h1.23c1.46,0,2.45-.26,2.96-.79.51-.53.77-1.52.77-2.99v-2.71h6.28v6.23h6.94v5.1h-6.94v12.96c0,1.26.23,2.17.69,2.73.46.56,1.2.84,2.22.84,1.19,0,2.52-.34,3.98-1.02l1.43,4.7c-1.84,1.02-4.17,1.53-6.99,1.53-2.99,0-5.11-.72-6.35-2.17Z"/><path class="cls-1" d="m659.77,124.88h-19.29c.27,2.08,1.11,3.72,2.53,4.93,1.41,1.21,3.22,1.81,5.44,1.81,1.36,0,2.67-.24,3.93-.71,1.26-.48,2.42-1.16,3.47-2.04l3.01,4.34c-2.79,2.38-6.36,3.57-10.72,3.57-2.96,0-5.55-.56-7.76-1.68-2.21-1.12-3.92-2.72-5.13-4.8-1.21-2.08-1.81-4.51-1.81-7.3s.58-5.13,1.74-7.22c1.16-2.09,2.78-3.71,4.87-4.85,2.09-1.14,4.52-1.71,7.27-1.71,3.91,0,6.99,1.15,9.24,3.45,2.25,2.3,3.37,5.45,3.37,9.47,0,.61-.05,1.53-.15,2.76Zm-6.33-4.59c-.03-1.84-.6-3.29-1.71-4.36-1.11-1.07-2.61-1.61-4.52-1.61-1.8,0-3.3.53-4.49,1.58-1.19,1.06-1.94,2.52-2.25,4.39h12.96Z"/><path class="cls-1" d="m682.07,109.62v5.67h-1.17c-3.85,0-6.79,2.04-8.83,6.12v14.85h-6.89v-26.54h6.74v5.26c1.02-1.94,2.26-3.35,3.73-4.24,1.46-.88,3.05-1.33,4.75-1.33.71,0,1.28.07,1.68.2Z"/><path class="cls-1" d="m167.9,159.42h-3.17v-3.73h3.17v-1.08c0-2.36.48-4.07,1.45-5.14.97-1.07,2.52-1.6,4.66-1.6.79,0,1.63.08,2.51.24.88.16,1.71.38,2.48.65l-1.04,3.5c-1.09-.4-2.04-.6-2.83-.6s-1.36.2-1.7.61c-.34.41-.5,1.07-.5,1.99v1.42h5.07v3.91h-5.07v15.46h-5.03v-15.65Z"/><path class="cls-1" d="m184.09,174.16c-1.55-.86-2.76-2.04-3.63-3.56-.87-1.51-1.3-3.25-1.3-5.22s.43-3.7,1.3-5.22c.87-1.51,2.08-2.7,3.63-3.56,1.55-.86,3.32-1.29,5.31-1.29s3.76.43,5.31,1.29c1.55.86,2.76,2.04,3.63,3.56.87,1.52,1.3,3.25,1.3,5.22s-.44,3.7-1.3,5.22c-.87,1.52-2.08,2.7-3.63,3.56s-3.32,1.29-5.31,1.29-3.76-.43-5.31-1.29Zm9.02-4.28c.96-1.16,1.43-2.65,1.43-4.49s-.48-3.33-1.43-4.49c-.96-1.16-2.19-1.73-3.71-1.73s-2.75.58-3.71,1.73c-.96,1.16-1.43,2.65-1.43,4.49s.48,3.33,1.43,4.49c.96,1.16,2.19,1.73,3.71,1.73s2.75-.58,3.71-1.73Z"/><path class="cls-1" d="m215.89,155.62v4.14h-.86c-2.81,0-4.96,1.49-6.45,4.47v10.84h-5.03v-19.37h4.92v3.84c.75-1.42,1.65-2.45,2.72-3.09,1.07-.65,2.22-.97,3.46-.97.52,0,.93.05,1.23.15Z"/><path class="cls-1" d="m252.11,171.09v3.99h-1.12c-1.47,0-2.62-.1-3.45-.3-.83-.2-1.55-.55-2.14-1.06-.6-.51-1.24-1.31-1.94-2.4l-3.32-5.1c-.4-.62-.76-1.04-1.08-1.25-.32-.21-.77-.32-1.34-.32h-1.79v10.43h-5.51v-26.45h10.21c2.98,0,5.3.69,6.95,2.07,1.65,1.38,2.48,3.32,2.48,5.83,0,1.84-.52,3.4-1.57,4.68-1.04,1.28-2.5,2.12-4.36,2.51.42.32.91.88,1.45,1.68l1.86,2.76c.62.94,1.11,1.61,1.45,1.99.35.39.7.64,1.06.76.36.12.85.19,1.47.19h.67Zm-11.48-10.32c1.39,0,2.48-.35,3.26-1.04.78-.7,1.17-1.68,1.17-2.94s-.39-2.25-1.17-2.94c-.78-.7-1.87-1.04-3.26-1.04h-4.69v7.97h4.69Z"/><path class="cls-1" d="m273.01,166.76h-14.08c.2,1.52.81,2.71,1.84,3.6,1.03.88,2.35,1.32,3.97,1.32.99,0,1.95-.17,2.87-.52.92-.35,1.76-.84,2.53-1.49l2.2,3.17c-2.04,1.74-4.65,2.61-7.82,2.61-2.16,0-4.05-.41-5.66-1.23-1.61-.82-2.86-1.99-3.74-3.5-.88-1.51-1.32-3.29-1.32-5.33s.42-3.74,1.27-5.27c.84-1.53,2.03-2.71,3.56-3.54,1.53-.83,3.3-1.25,5.31-1.25,2.86,0,5.1.84,6.74,2.51,1.64,1.68,2.46,3.98,2.46,6.91,0,.45-.04,1.12-.11,2.01Zm-4.62-3.35c-.03-1.34-.44-2.4-1.25-3.19-.81-.78-1.91-1.17-3.3-1.17-1.32,0-2.41.39-3.28,1.16-.87.77-1.42,1.84-1.64,3.2h9.46Z"/><path class="cls-1" d="m279.1,174.96c-1.43-.32-2.69-.72-3.78-1.19l1.19-3.69c2.56,1.09,4.74,1.64,6.56,1.64,2.31,0,3.46-.73,3.46-2.2,0-.42-.12-.75-.35-.99-.24-.24-.63-.46-1.17-.67-.55-.21-1.47-.5-2.76-.88-1.44-.42-2.58-.83-3.43-1.23-.84-.4-1.52-.96-2.03-1.7-.51-.73-.76-1.71-.76-2.92,0-1.94.66-3.39,1.97-4.36,1.32-.97,3.22-1.45,5.7-1.45,1.34,0,2.63.12,3.87.37,1.24.25,2.32.57,3.24.97l-1.08,3.58c-2.31-.79-4.25-1.19-5.81-1.19-.97,0-1.71.14-2.22.41-.51.27-.76.68-.76,1.23,0,.62.32,1.09.97,1.42.65.32,1.63.65,2.94.97.79.2,1.39.36,1.79.48,1.54.47,2.72,1.15,3.54,2.03.82.88,1.23,2.08,1.23,3.6,0,2.01-.71,3.56-2.12,4.64-1.42,1.08-3.38,1.62-5.89,1.62-1.44,0-2.88-.16-4.3-.48Z"/><path class="cls-1" d="m313.58,166.76h-14.08c.2,1.52.81,2.71,1.84,3.6,1.03.88,2.35,1.32,3.97,1.32.99,0,1.95-.17,2.87-.52.92-.35,1.76-.84,2.53-1.49l2.2,3.17c-2.04,1.74-4.65,2.61-7.82,2.61-2.16,0-4.05-.41-5.66-1.23-1.61-.82-2.86-1.99-3.74-3.5-.88-1.51-1.32-3.29-1.32-5.33s.42-3.74,1.27-5.27c.84-1.53,2.03-2.71,3.56-3.54,1.53-.83,3.3-1.25,5.31-1.25,2.86,0,5.1.84,6.74,2.51,1.64,1.68,2.46,3.98,2.46,6.91,0,.45-.04,1.12-.11,2.01Zm-4.62-3.35c-.03-1.34-.44-2.4-1.25-3.19-.81-.78-1.91-1.17-3.3-1.17-1.32,0-2.41.39-3.28,1.16-.87.77-1.42,1.84-1.64,3.2h9.46Z"/><path class="cls-1" d="m335.68,174.85c-.92.32-1.76.48-2.53.48-2.38,0-3.87-.87-4.47-2.61-.75.84-1.66,1.5-2.76,1.96-1.09.46-2.29.69-3.58.69-1.99,0-3.56-.52-4.73-1.55-1.17-1.03-1.75-2.43-1.75-4.19,0-2.09,1.06-3.67,3.19-4.75,2.12-1.08,5.24-1.61,9.33-1.58v-1.01c0-1.09-.29-1.89-.86-2.38-.57-.5-1.5-.75-2.79-.75-1.86,0-3.96.61-6.3,1.83l-1.53-3.61c1.02-.6,2.33-1.09,3.95-1.47,1.61-.38,3.18-.58,4.69-.58,2.61,0,4.55.57,5.83,1.7,1.28,1.13,1.92,2.85,1.92,5.16v7.97c0,.77.37,1.16,1.12,1.16.45,0,.76-.04.93-.11l.34,3.65Zm-9.52-3.76c.86-.35,1.6-.82,2.22-1.42v-3.17c-2.09.1-3.65.25-4.69.45-1.04.2-1.77.48-2.18.86-.41.37-.62.92-.62,1.64,0,1.44.87,2.16,2.61,2.16.92,0,1.81-.17,2.66-.52Z"/><path class="cls-1" d="m351.18,155.62v4.14h-.86c-2.81,0-4.96,1.49-6.45,4.47v10.84h-5.03v-19.37h4.92v3.84c.75-1.42,1.65-2.45,2.72-3.09,1.07-.65,2.22-.97,3.46-.97.52,0,.93.05,1.23.15Z"/><path class="cls-1" d="m356.8,174.2c-1.57-.83-2.77-2.01-3.61-3.52-.84-1.51-1.27-3.28-1.27-5.29s.42-3.81,1.25-5.33c.83-1.51,2.02-2.68,3.56-3.5,1.54-.82,3.34-1.23,5.4-1.23,1.34,0,2.62.19,3.84.56,1.22.37,2.28.91,3.2,1.6l-1.94,3.28c-.8-.55-1.58-.95-2.37-1.21s-1.61-.39-2.48-.39c-1.66,0-2.98.56-3.93,1.68-.96,1.12-1.43,2.63-1.43,4.55s.5,3.4,1.49,4.53c.99,1.13,2.33,1.7,4.02,1.7.87,0,1.7-.13,2.48-.39.78-.26,1.57-.66,2.37-1.21l1.94,3.24c-.87.7-1.92,1.24-3.15,1.62-1.23.38-2.53.58-3.89.58-2.09,0-3.91-.42-5.48-1.25Z"/><path class="cls-1" d="m389.93,157.26c1.22,1.29,1.83,3.19,1.83,5.7v12.11h-5.03v-11.66c0-1.39-.29-2.43-.88-3.11-.58-.68-1.47-1.02-2.66-1.02-.99,0-1.93.23-2.81.69-.88.46-1.57,1.07-2.07,1.84v13.26h-5.03v-26.45h5.03v9.69c1.34-1.99,3.4-2.98,6.19-2.98,2.41,0,4.22.65,5.44,1.94Z"/><path class="cls-1" d="m425.73,174.85c-.92.32-1.76.48-2.53.48-2.38,0-3.87-.87-4.47-2.61-.75.84-1.66,1.5-2.76,1.96-1.09.46-2.29.69-3.58.69-1.99,0-3.56-.52-4.73-1.55-1.17-1.03-1.75-2.43-1.75-4.19,0-2.09,1.06-3.67,3.19-4.75,2.12-1.08,5.24-1.61,9.33-1.58v-1.01c0-1.09-.29-1.89-.86-2.38-.57-.5-1.5-.75-2.79-.75-1.86,0-3.96.61-6.3,1.83l-1.53-3.61c1.02-.6,2.33-1.09,3.95-1.47,1.61-.38,3.18-.58,4.69-.58,2.61,0,4.55.57,5.83,1.7,1.28,1.13,1.92,2.85,1.92,5.16v7.97c0,.77.37,1.16,1.12,1.16.45,0,.76-.04.93-.11l.34,3.65Zm-9.52-3.76c.86-.35,1.6-.82,2.22-1.42v-3.17c-2.09.1-3.65.25-4.69.45-1.04.2-1.77.48-2.18.86-.41.37-.62.92-.62,1.64,0,1.44.87,2.16,2.61,2.16.92,0,1.81-.17,2.66-.52Z"/><path class="cls-1" d="m445.55,157.26c1.22,1.29,1.83,3.19,1.83,5.7v12.11h-5.03v-11.66c0-1.39-.29-2.43-.88-3.11-.58-.68-1.47-1.02-2.66-1.02-.99,0-1.93.23-2.81.69-.88.46-1.57,1.07-2.07,1.84v13.26h-5.03v-19.37h4.92v2.79c1.29-2.11,3.39-3.17,6.3-3.17,2.41,0,4.22.65,5.44,1.94Z"/><path class="cls-1" d="m470.59,148.62v26.45h-4.92v-1.83c-1.39,1.47-3.27,2.2-5.63,2.2-1.74,0-3.28-.42-4.64-1.25-1.35-.83-2.41-1.99-3.17-3.48-.76-1.49-1.14-3.19-1.14-5.1,0-2.04.43-3.83,1.29-5.38.86-1.55,2.07-2.76,3.65-3.61,1.58-.86,3.4-1.29,5.46-1.29,1.42,0,2.77.22,4.06.67v-7.38h5.03Zm-5.03,21.95v-10.66c-1.07-.5-2.24-.75-3.5-.75-1.81,0-3.25.57-4.32,1.7-1.07,1.13-1.6,2.64-1.6,4.53s.53,3.45,1.58,4.6c1.05,1.16,2.46,1.73,4.23,1.73,1.44,0,2.65-.38,3.61-1.16Z"/><path class="cls-1" d="m487.54,148.62h5.51v26.45h-5.51v-26.45Z"/><path class="cls-1" d="m516.23,157.26c1.22,1.29,1.83,3.19,1.83,5.7v12.11h-5.03v-11.66c0-1.39-.29-2.43-.88-3.11-.58-.68-1.47-1.02-2.66-1.02-.99,0-1.93.23-2.81.69-.88.46-1.57,1.07-2.07,1.84v13.26h-5.03v-19.37h4.92v2.79c1.29-2.11,3.39-3.17,6.3-3.17,2.41,0,4.22.65,5.44,1.94Z"/><path class="cls-1" d="m540.12,157.26c1.22,1.29,1.83,3.19,1.83,5.7v12.11h-5.03v-11.66c0-1.39-.29-2.43-.88-3.11-.58-.68-1.47-1.02-2.66-1.02-.99,0-1.93.23-2.81.69-.88.46-1.57,1.07-2.07,1.84v13.26h-5.03v-19.37h4.92v2.79c1.29-2.11,3.39-3.17,6.3-3.17,2.41,0,4.22.65,5.44,1.94Z"/><path class="cls-1" d="m550.42,174.16c-1.55-.86-2.76-2.04-3.63-3.56-.87-1.51-1.3-3.25-1.3-5.22s.43-3.7,1.3-5.22c.87-1.51,2.08-2.7,3.63-3.56,1.55-.86,3.32-1.29,5.31-1.29s3.76.43,5.31,1.29c1.55.86,2.76,2.04,3.63,3.56.87,1.52,1.3,3.25,1.3,5.22s-.44,3.7-1.3,5.22c-.87,1.52-2.08,2.7-3.63,3.56-1.55.86-3.32,1.29-5.31,1.29s-3.76-.43-5.31-1.29Zm9.02-4.28c.96-1.16,1.43-2.65,1.43-4.49s-.48-3.33-1.43-4.49c-.96-1.16-2.19-1.73-3.71-1.73s-2.75.58-3.71,1.73c-.96,1.16-1.43,2.65-1.43,4.49s.48,3.33,1.43,4.49c.96,1.16,2.19,1.73,3.71,1.73s2.75-.58,3.71-1.73Z"/><path class="cls-1" d="m586.84,155.7l-7.45,19.37h-5.22l-7.45-19.37h5.22l4.84,13.79,4.84-13.79h5.22Z"/><path class="cls-1" d="m608.15,174.85c-.92.32-1.76.48-2.53.48-2.38,0-3.87-.87-4.47-2.61-.75.84-1.66,1.5-2.76,1.96-1.09.46-2.29.69-3.58.69-1.99,0-3.56-.52-4.73-1.55-1.17-1.03-1.75-2.43-1.75-4.19,0-2.09,1.06-3.67,3.19-4.75,2.12-1.08,5.24-1.61,9.33-1.58v-1.01c0-1.09-.29-1.89-.86-2.38-.57-.5-1.5-.75-2.79-.75-1.86,0-3.96.61-6.3,1.83l-1.53-3.61c1.02-.6,2.33-1.09,3.95-1.47,1.61-.38,3.18-.58,4.69-.58,2.61,0,4.55.57,5.83,1.7,1.28,1.13,1.92,2.85,1.92,5.16v7.97c0,.77.37,1.16,1.12,1.16.45,0,.76-.04.93-.11l.34,3.65Zm-9.52-3.76c.86-.35,1.6-.82,2.22-1.42v-3.17c-2.09.1-3.65.25-4.69.45-1.04.2-1.77.48-2.18.86-.41.37-.62.92-.62,1.64,0,1.44.87,2.16,2.61,2.16.92,0,1.81-.17,2.66-.52Z"/><path class="cls-1" d="m613.61,173.71c-.91-1.06-1.36-2.86-1.36-5.42v-8.87h-3.17v-3.54h.89c1.07,0,1.79-.19,2.16-.58.37-.38.56-1.11.56-2.18v-1.97h4.58v4.55h5.07v3.73h-5.07v9.46c0,.92.17,1.58.5,1.99s.88.61,1.62.61c.87,0,1.84-.25,2.91-.75l1.04,3.43c-1.34.75-3.04,1.12-5.1,1.12-2.19,0-3.73-.53-4.64-1.58Z"/><path class="cls-1" d="m627.66,153.07c-.56-.53-.84-1.21-.84-2.03s.29-1.46.86-1.99c.57-.53,1.28-.8,2.12-.8s1.55.27,2.12.8c.57.53.86,1.2.86,1.99s-.28,1.5-.84,2.03c-.56.53-1.27.8-2.14.8s-1.58-.27-2.14-.8Zm-.35,2.63h5.03v19.37h-5.03v-19.37Z"/><path class="cls-1" d="m641.55,174.16c-1.55-.86-2.76-2.04-3.63-3.56-.87-1.51-1.3-3.25-1.3-5.22s.43-3.7,1.3-5.22c.87-1.51,2.08-2.7,3.63-3.56,1.55-.86,3.32-1.29,5.31-1.29s3.76.43,5.31,1.29c1.55.86,2.76,2.04,3.63,3.56.87,1.52,1.3,3.25,1.3,5.22s-.44,3.7-1.3,5.22c-.87,1.52-2.08,2.7-3.63,3.56s-3.32,1.29-5.31,1.29-3.76-.43-5.31-1.29Zm9.02-4.28c.96-1.16,1.43-2.65,1.43-4.49s-.48-3.33-1.43-4.49c-.96-1.16-2.19-1.73-3.71-1.73s-2.75.58-3.71,1.73c-.96,1.16-1.43,2.65-1.43,4.49s.48,3.33,1.43,4.49c.96,1.16,2.19,1.73,3.71,1.73s2.75-.58,3.71-1.73Z"/><path class="cls-1" d="m677.68,157.26c1.22,1.29,1.83,3.19,1.83,5.7v12.11h-5.03v-11.66c0-1.39-.29-2.43-.88-3.11-.58-.68-1.47-1.02-2.66-1.02-.99,0-1.93.23-2.81.69-.88.46-1.57,1.07-2.07,1.84v13.26h-5.03v-19.37h4.92v2.79c1.29-2.11,3.39-3.17,6.3-3.17,2.41,0,4.22.65,5.44,1.94Z"/><path class="cls-1" d="m183.5,202.34v3.04c-.47-.06-.96-.09-1.46-.09s-.99.03-1.43.09c.8,1.03,1.2,2.38,1.2,4.04v9.6h-3.98v-9.51c0-1.13-.31-1.99-.92-2.59-.61-.59-1.51-.89-2.68-.89s-2.06.3-2.68.89c-.61.6-.92,1.46-.92,2.59v2.75c.49-.68,1.07-1.19,1.75-1.52.68-.33,1.49-.5,2.43-.5h.7v3.1h-.7c-1.15,0-2.06.16-2.72.47-.66.31-1.15.83-1.46,1.55v3.66h-3.98v-9.6c0-2.11.65-3.72,1.95-4.83s3.17-1.67,5.63-1.67c1.87,0,3.42.33,4.65.99.51-.55,1.11-.95,1.8-1.2.69-.25,1.52-.38,2.47-.38h.35Z"/><path class="cls-1" d="m174.21,226.79c-.79-.6-1.18-1.38-1.18-2.36v-.91h-1.32v-2.49h4.56v2.84c0,.41.1.73.29.95.19.22.47.34.82.34.33,0,.59-.11.78-.34.19-.22.28-.54.28-.95v-2.84h3.36v2.81c0,1.19-.4,2.13-1.19,2.81-.79.68-1.88,1.02-3.26,1.02-1.31,0-2.36-.3-3.15-.89Z"/><path class="cls-1" d="m200.65,203.22v15.8h-3.86v-2.4c-1.09,1.79-2.8,2.69-5.12,2.69-1.89,0-3.34-.53-4.33-1.58-1-1.05-1.49-2.59-1.49-4.62v-9.89h3.98v9.51c0,2.24.97,3.36,2.9,3.36.82,0,1.59-.19,2.31-.57.72-.38,1.28-.88,1.67-1.51v-10.8h3.95Z"/><path class="cls-1" d="m205.99,218.04c-1.32-.85-1.97-2.05-1.97-3.61,0-1.09.3-1.96.89-2.62.59-.65,1.46-1.08,2.59-1.27-1.11-.19-1.97-.6-2.58-1.23-.6-.62-.91-1.39-.91-2.31,0-1.25.49-2.23,1.48-2.94.98-.71,2.33-1.07,4.02-1.07.82,0,1.58.11,2.28.32l-.29,2.75c-.43-.1-.87-.15-1.32-.15-.72,0-1.27.13-1.64.39-.37.26-.56.65-.56,1.16,0,1.11.95,1.67,2.84,1.67h1.05v2.75h-.7c-1.15,0-1.97.16-2.46.48-.49.32-.73.85-.73,1.59s.31,1.31.92,1.7c.61.39,1.49.59,2.62.59,1.25,0,2.15-.27,2.71-.8.56-.54.83-1.41.83-2.62v-9.6h3.98v9.57c0,2.26-.6,3.92-1.78,4.96-1.19,1.04-3.07,1.57-5.65,1.57-2.44,0-4.32-.42-5.63-1.27Z"/><path class="cls-1" d="m213.17,199.68c0-1.44.32-2.49.96-3.13.64-.64,1.69-.97,3.13-.97h4.01v2.87h-2.66c-.62,0-1.07.14-1.35.41-.27.27-.41.72-.41,1.35v.53h-3.69v-1.05Z"/><path class="cls-1" d="m224.38,218.93c-1.05-.25-1.98-.59-2.78-1.02l1.17-2.84c1.56.8,2.96,1.2,4.18,1.2,1.31,0,2.33-.47,3.07-1.4.74-.94,1.11-2.23,1.11-3.89s-.35-2.86-1.05-3.72c-.7-.86-1.73-1.29-3.07-1.29-1.15,0-2.54.37-4.15,1.11l-1.17-2.9c.7-.37,1.58-.67,2.65-.91,1.06-.23,2.08-.35,3.06-.35,2.48,0,4.38.69,5.72,2.08,1.34,1.39,2,3.36,2,5.94s-.68,4.66-2.05,6.14c-1.37,1.48-3.26,2.22-5.68,2.22-.96,0-1.96-.13-3.01-.38Z"/><path class="cls-1" d="m221.16,197.87h13.37v2.87h-13.37v-2.87Z"/><path class="cls-1" d="m249.68,204.9c1.4,1.32,2.11,3.22,2.11,5.72,0,1.76-.32,3.28-.96,4.58-.64,1.3-1.57,2.3-2.78,3-1.21.7-2.63,1.05-4.27,1.05-.7,0-1.45-.09-2.25-.26l-1.73-6.38h-2.08v-2.46h5.21l1.64,6.09c.99-.19,1.78-.77,2.37-1.71.59-.95.88-2.14.88-3.58,0-1.6-.39-2.82-1.17-3.66-.78-.84-1.91-1.26-3.39-1.26-1.7,0-3.32.54-4.86,1.61l-1.43-2.81c1.79-1.27,4-1.9,6.61-1.9s4.71.66,6.12,1.97Z"/><path class="cls-1" d="m244.24,199.77c-.64-.64-.97-1.69-.97-3.13v-.79h3.69v.85c0,.41.12.71.35.89.23.19.6.28,1.11.28h6.73v2.87h-7.78c-1.44,0-2.49-.32-3.13-.97Z"/><path class="cls-1" d="m255.67,218.04c-1.32-.85-1.97-2.05-1.97-3.61,0-1.09.3-1.96.89-2.62.59-.65,1.46-1.08,2.59-1.27-1.11-.19-1.97-.6-2.58-1.23-.6-.62-.91-1.39-.91-2.31,0-1.25.49-2.23,1.48-2.94.98-.71,2.33-1.07,4.02-1.07.82,0,1.58.11,2.28.32l-.29,2.75c-.43-.1-.87-.15-1.32-.15-.72,0-1.27.13-1.64.39-.37.26-.56.65-.56,1.16,0,1.11.95,1.67,2.84,1.67h1.05v2.75h-.7c-1.15,0-1.97.16-2.46.48-.49.32-.73.85-.73,1.59s.31,1.31.92,1.7c.61.39,1.49.59,2.62.59,1.25,0,2.15-.27,2.71-.8.56-.54.83-1.41.83-2.62v-9.6h3.98v9.57c0,2.26-.6,3.92-1.78,4.96-1.19,1.04-3.07,1.57-5.65,1.57-2.44,0-4.32-.42-5.63-1.27Z"/><path class="cls-1" d="m274.19,218.22c-.6-.63-.89-1.69-.89-3.17v-11.82h3.98v11.47c0,.49.09.83.26,1.04.18.2.47.31.88.31s.73-.03.97-.09l.23,2.9c-.76.21-1.58.32-2.46.32-1.38,0-2.37-.32-2.97-.95Zm8.4,0c-.6-.63-.89-1.69-.89-3.17v-11.82h3.98v11.47c0,.49.09.83.26,1.04.18.2.47.31.88.31s.73-.03.97-.09l.23,2.9c-.76.21-1.58.32-2.46.32-1.39,0-2.38-.32-2.97-.95Z"/><path class="cls-1" d="m302.03,204.36c1.21.96,1.81,2.34,1.81,4.15v10.5h-3.98v-6.67l-1.58-.03c-1.83,0-3.16.17-3.98.51-.82.34-1.23.9-1.23,1.68,0,.6.19,1.07.58,1.39.39.32.95.48,1.67.48.53,0,1.15-.1,1.87-.29l.56,2.63c-.78.35-1.8.53-3.07.53-1.85,0-3.25-.44-4.18-1.32-.94-.88-1.4-2.01-1.4-3.39,0-1.68.73-2.93,2.19-3.76,1.46-.83,3.68-1.24,6.64-1.24l1.93.06v-.64c0-1.03-.29-1.79-.86-2.27-.58-.48-1.49-.72-2.74-.72-.92,0-1.79.1-2.6.31-.82.2-1.71.55-2.66,1.04l-1.23-2.78c.98-.51,2.08-.9,3.32-1.18,1.24-.28,2.47-.42,3.7-.42,2.28,0,4.03.48,5.24,1.43Z"/><path class="cls-1" d="m307.76,208.25c-.64-.64-.97-1.69-.97-3.13v-.79h3.69v.85c0,.41.12.71.35.89.23.19.6.28,1.11.28h3.54v2.87h-4.59c-1.44,0-2.49-.32-3.13-.97Zm0,8.19c-.64-.64-.97-1.69-.97-3.13v-.79h3.69v.85c0,.41.12.71.35.89.23.19.6.28,1.11.28h3.54v2.87h-4.59c-1.44,0-2.49-.32-3.13-.97Z"/><path class="cls-1" d="m333.13,203.22v15.8h-3.86v-2.4c-1.09,1.79-2.8,2.69-5.12,2.69-1.89,0-3.34-.53-4.33-1.58-1-1.05-1.49-2.59-1.49-4.62v-9.89h3.98v9.51c0,2.24.97,3.36,2.9,3.36.82,0,1.59-.19,2.31-.57.72-.38,1.28-.88,1.67-1.51v-10.8h3.95Z"/><path class="cls-1" d="m338.63,218.93c-1.05-.25-1.98-.59-2.78-1.02l1.17-2.84c1.56.8,2.96,1.2,4.18,1.2,1.31,0,2.33-.47,3.07-1.4.74-.94,1.11-2.23,1.11-3.89s-.35-2.86-1.05-3.72c-.7-.86-1.73-1.29-3.07-1.29-1.15,0-2.54.37-4.15,1.11l-1.17-2.9c.7-.37,1.58-.67,2.65-.91,1.06-.23,2.08-.35,3.06-.35,2.48,0,4.38.69,5.72,2.08,1.34,1.39,2,3.36,2,5.94s-.68,4.66-2.05,6.14c-1.37,1.48-3.26,2.22-5.68,2.22-.96,0-1.96-.13-3.01-.38Z"/><path class="cls-1" d="m341.67,199.77c-.64-.64-.97-1.69-.97-3.13v-.79h3.69v.85c0,.41.12.71.35.89.23.19.6.28,1.11.28h6.73v2.87h-7.78c-1.44,0-2.49-.32-3.13-.97Z"/><path class="cls-1" d="m353.12,217.15c-1.16-1.4-1.74-3.37-1.74-5.91,0-2.28.49-4.12,1.46-5.5.98-1.38,2.39-2.26,4.24-2.63l2.46,1.73,2.6-1.73c1.7.33,2.95.96,3.76,1.89.81.93,1.21,2.17,1.21,3.73v10.3h-3.98v-9.48c0-1.5-.52-2.46-1.55-2.87l-1.78,1.05h-.41l-1.9-1.17c-.68.31-1.2.87-1.57,1.68-.36.81-.54,1.82-.54,3.03,0,1.56.29,2.77.88,3.64.58.87,1.41,1.3,2.49,1.3.37,0,.88-.09,1.52-.26l.76,2.66c-.8.43-1.8.64-3.01.64-2.11,0-3.74-.7-4.9-2.11Z"/><path class="cls-1" d="m383.9,204.67c1.3,1.16,1.95,2.82,1.95,4.99v9.36h-3.98v-9.57c0-1.09-.34-1.94-1.01-2.53-.67-.59-1.63-.89-2.88-.89-1.11,0-1.98.21-2.6.64-.62.43-.98,1.04-1.05,1.84h3.6v2.4h-1.87c-.25.29-.43.67-.54,1.13-.11.46-.16,1.07-.16,1.83v5.15h-3.98v-3.95c0-1.77.58-3.16,1.75-4.15h-2.54v-1.02c0-2.26.66-3.99,1.97-5.18,1.32-1.19,3.23-1.78,5.75-1.78s4.31.58,5.6,1.74Z"/><path class="cls-1" d="m391.76,218.95c-1.17-.24-2.15-.56-2.93-.95l.91-3.01c1.99.86,3.79,1.29,5.41,1.29.94,0,1.62-.14,2.06-.42.44-.28.66-.71.66-1.27,0-.43-.12-.77-.37-1.02-.24-.25-.6-.47-1.05-.64-.46-.18-1.15-.38-2.06-.61-1.09-.29-1.99-.6-2.69-.94-.7-.33-1.27-.8-1.71-1.4-.44-.6-.66-1.4-.66-2.4,0-1.52.55-2.67,1.64-3.45,1.09-.78,2.7-1.17,4.83-1.17.99,0,1.99.1,3,.29,1,.2,1.86.45,2.56.76l-.88,2.87c-1.85-.59-3.41-.88-4.68-.88-1.66,0-2.49.45-2.49,1.35,0,.55.27.96.8,1.23.54.27,1.36.56,2.47.85.62.16,1.08.28,1.38.38,1.27.39,2.23.94,2.9,1.64.66.7,1,1.67,1,2.9,0,1.6-.57,2.83-1.71,3.7-1.14.87-2.76,1.3-4.87,1.3-1.17,0-2.34-.12-3.51-.37Z"/><path class="cls-1" d="m407.18,218.95c-1.17-.24-2.15-.56-2.93-.95l.91-3.01c1.99.86,3.79,1.29,5.41,1.29.94,0,1.62-.14,2.06-.42.44-.28.66-.71.66-1.27,0-.43-.12-.77-.37-1.02-.24-.25-.6-.47-1.05-.64-.46-.18-1.15-.38-2.06-.61-1.09-.29-1.99-.6-2.69-.94-.7-.33-1.27-.8-1.71-1.4-.44-.6-.66-1.4-.66-2.4,0-1.52.55-2.67,1.64-3.45,1.09-.78,2.7-1.17,4.83-1.17.99,0,1.99.1,3,.29,1,.2,1.86.45,2.56.76l-.88,2.87c-1.85-.59-3.41-.88-4.68-.88-1.66,0-2.49.45-2.49,1.35,0,.55.27.96.8,1.23.54.27,1.36.56,2.47.85.62.16,1.08.28,1.38.38,1.27.39,2.23.94,2.9,1.64.66.7,1,1.67,1,2.9,0,1.6-.57,2.83-1.71,3.7-1.14.87-2.76,1.3-4.87,1.3-1.17,0-2.34-.12-3.51-.37Z"/><path class="cls-1" d="m435.5,203.22v9.89c0,2.03-.5,3.57-1.49,4.62-1,1.05-2.44,1.58-4.33,1.58-2.34,0-4.06-.92-5.15-2.75v2.46h-3.83v-15.8h3.95v10.8c.39.62.95,1.13,1.67,1.51.72.38,1.49.57,2.31.57,1.93,0,2.9-1.12,2.9-3.36v-9.51h3.98Z"/><path class="cls-1" d="m454.22,198.25v14.86c0,1.91-.67,3.42-2,4.53s-3.16,1.67-5.46,1.67-4.08-.56-5.38-1.67c-1.31-1.11-1.96-2.62-1.96-4.53v-9.89h3.98v9.63c0,1.03.3,1.85.91,2.46.6.6,1.42.91,2.46.91s1.92-.3,2.55-.91c.62-.6.94-1.42.94-2.46v-14.6h3.98Z"/><path class="cls-1" d="m460.22,218.95c-1.17-.24-2.15-.56-2.93-.95l.91-3.01c1.99.86,3.79,1.29,5.41,1.29.94,0,1.62-.14,2.06-.42.44-.28.66-.71.66-1.27,0-.43-.12-.77-.37-1.02-.24-.25-.6-.47-1.05-.64-.46-.18-1.15-.38-2.06-.61-1.09-.29-1.99-.6-2.69-.94-.7-.33-1.27-.8-1.71-1.4-.44-.6-.66-1.4-.66-2.4,0-1.52.55-2.67,1.64-3.45,1.09-.78,2.7-1.17,4.83-1.17.99,0,1.99.1,3,.29,1,.2,1.86.45,2.56.76l-.88,2.87c-1.85-.59-3.41-.88-4.68-.88-1.66,0-2.49.45-2.49,1.35,0,.55.27.96.8,1.23.54.27,1.36.56,2.47.85.62.16,1.08.28,1.38.38,1.27.39,2.23.94,2.9,1.64.66.7,1,1.67,1,2.9,0,1.6-.57,2.83-1.71,3.7-1.14.87-2.76,1.3-4.87,1.3-1.17,0-2.34-.12-3.51-.37Z"/><path class="cls-1" d="m473.59,208.25c-.64-.64-.97-1.69-.97-3.13v-.79h3.69v.85c0,.41.12.71.35.89.23.19.6.28,1.11.28h3.54v2.87h-4.59c-1.44,0-2.49-.32-3.13-.97Zm0,8.19c-.64-.64-.97-1.69-.97-3.13v-.79h3.69v.85c0,.41.12.71.35.89.23.19.6.28,1.11.28h3.54v2.87h-4.59c-1.44,0-2.49-.32-3.13-.97Z"/><path class="cls-1" d="m500.33,202.34v3.04c-.47-.06-.96-.09-1.46-.09-.72,0-1.38.06-1.96.18.7.7,1.05,1.81,1.05,3.34v10.21h-3.98v-6.7h-1.58c-1.85,0-3.18.17-3.99.51-.81.34-1.21.91-1.21,1.71,0,.59.19,1.04.58,1.36.39.32.95.48,1.67.48.53,0,1.15-.1,1.87-.29l.56,2.63c-.78.35-1.8.53-3.07.53-1.74,0-3.1-.41-4.1-1.24-.99-.83-1.49-1.97-1.49-3.44,0-1.7.73-2.96,2.18-3.79,1.45-.83,3.68-1.24,6.68-1.24.8,0,1.43.01,1.9.03v-.61c0-1.03-.29-1.79-.86-2.27-.58-.48-1.49-.72-2.74-.72-.92,0-1.79.1-2.6.31-.82.2-1.71.55-2.66,1.04l-1.23-2.78c.94-.49,2.01-.88,3.22-1.17,1.21-.29,2.39-.44,3.54-.44,2.18,0,3.81.4,4.89,1.2.51-.6,1.12-1.05,1.84-1.35.72-.29,1.59-.44,2.6-.44h.35Z"/><path class="cls-1" d="m507.41,208.22c0-1.54-.8-2.31-2.4-2.31-.9,0-2.03.28-3.39.85l-.82-2.9c1.6-.62,3.25-.94,4.94-.94,1.93,0,3.35.43,4.27,1.3.92.87,1.38,2.22,1.38,4.05v10.74h-3.98v-10.8Z"/><path class="cls-1" d="m528.71,204.51c.99,1.05,1.49,2.59,1.49,4.62v9.89h-3.98v-9.51c0-2.24-.95-3.36-2.84-3.36-.84,0-1.62.19-2.35.57s-1.29.88-1.68,1.51v10.8h-3.95v-15.8h3.83v1.93c1.15-1.48,2.85-2.22,5.09-2.22,1.93,0,3.39.53,4.39,1.58Z"/><path class="cls-1" d="m535.53,218.93c-1.05-.25-1.98-.59-2.78-1.02l1.17-2.84c1.56.8,2.96,1.2,4.18,1.2,1.31,0,2.33-.47,3.07-1.4.74-.94,1.11-2.23,1.11-3.89s-.35-2.86-1.05-3.72c-.7-.86-1.73-1.29-3.07-1.29-1.15,0-2.54.37-4.15,1.11l-1.17-2.9c.7-.37,1.58-.67,2.65-.91,1.06-.23,2.08-.35,3.06-.35,2.48,0,4.38.69,5.72,2.08,1.34,1.39,2,3.36,2,5.94s-.68,4.66-2.05,6.14c-1.37,1.48-3.26,2.22-5.68,2.22-.96,0-1.96-.13-3.01-.38Z"/><path class="cls-1" d="m532.31,197.87h13.37v2.87h-13.37v-2.87Z"/><path class="cls-1" d="m562.74,204.51c.99,1.05,1.49,2.59,1.49,4.62v9.89h-3.98v-9.51c0-2.24-.95-3.36-2.84-3.36-.84,0-1.62.19-2.35.57s-1.29.88-1.68,1.51v10.8h-3.95v-15.8h3.83v1.93c1.15-1.48,2.85-2.22,5.09-2.22,1.93,0,3.39.53,4.39,1.58Z"/><path class="cls-1" d="m569.39,218.04c-1.32-.85-1.97-2.05-1.97-3.61,0-1.09.3-1.96.89-2.62.59-.65,1.46-1.08,2.59-1.27-1.11-.19-1.97-.6-2.58-1.23-.6-.62-.91-1.39-.91-2.31,0-1.25.49-2.23,1.48-2.94.98-.71,2.33-1.07,4.02-1.07.82,0,1.58.11,2.28.32l-.29,2.75c-.43-.1-.87-.15-1.32-.15-.72,0-1.27.13-1.64.39-.37.26-.56.65-.56,1.16,0,1.11.95,1.67,2.84,1.67h1.05v2.75h-.7c-1.15,0-1.97.16-2.46.48-.49.32-.73.85-.73,1.59s.31,1.31.92,1.7c.61.39,1.49.59,2.62.59,1.25,0,2.15-.27,2.71-.8.56-.54.83-1.41.83-2.62v-9.6h3.98v9.57c0,2.26-.6,3.92-1.78,4.96-1.19,1.04-3.07,1.57-5.65,1.57-2.44,0-4.32-.42-5.63-1.27Z"/><path class="cls-1" d="m591.2,208.22c0-1.54-.8-2.31-2.4-2.31-.9,0-2.03.28-3.39.85l-.82-2.9c1.6-.62,3.25-.94,4.94-.94,1.93,0,3.35.43,4.27,1.3.92.87,1.38,2.22,1.38,4.05v10.74h-3.98v-10.8Z"/><path class="cls-1" d="m615.78,202.34v3.04c-.47-.06-.96-.09-1.46-.09s-.99.03-1.43.09c.8,1.03,1.2,2.38,1.2,4.04v9.6h-3.98v-9.51c0-1.13-.31-1.99-.92-2.59-.61-.59-1.51-.89-2.68-.89s-2.06.3-2.68.89c-.61.6-.92,1.46-.92,2.59v2.75c.49-.68,1.07-1.19,1.75-1.52.68-.33,1.49-.5,2.43-.5h.7v3.1h-.7c-1.15,0-2.06.16-2.72.47-.66.31-1.15.83-1.46,1.55v3.66h-3.98v-9.6c0-2.11.65-3.72,1.95-4.83s3.17-1.67,5.63-1.67c1.87,0,3.42.33,4.65.99.51-.55,1.11-.95,1.8-1.2.69-.25,1.52-.38,2.47-.38h.35Z"/><path class="cls-1" d="m622.95,208.22c0-1.54-.8-2.31-2.4-2.31-.9,0-2.03.28-3.39.85l-.82-2.9c1.6-.62,3.25-.94,4.94-.94,1.93,0,3.35.43,4.27,1.3.92.87,1.38,2.22,1.38,4.05v10.74h-3.98v-10.8Z"/><path class="cls-1" d="m646.94,202.34v3.04c-.47-.06-.96-.09-1.46-.09-.72,0-1.38.06-1.96.18.7.7,1.05,1.81,1.05,3.34v10.21h-3.98v-6.7h-1.58c-1.85,0-3.18.17-3.99.51-.81.34-1.21.91-1.21,1.71,0,.59.19,1.04.58,1.36.39.32.95.48,1.67.48.53,0,1.15-.1,1.87-.29l.56,2.63c-.78.35-1.8.53-3.07.53-1.74,0-3.1-.41-4.1-1.24-.99-.83-1.49-1.97-1.49-3.44,0-1.7.73-2.96,2.18-3.79,1.45-.83,3.68-1.24,6.68-1.24.8,0,1.43.01,1.9.03v-.61c0-1.03-.29-1.79-.86-2.27-.58-.48-1.49-.72-2.74-.72-.92,0-1.79.1-2.6.31-.82.2-1.71.55-2.66,1.04l-1.23-2.78c.94-.49,2.01-.88,3.22-1.17,1.21-.29,2.39-.44,3.54-.44,2.18,0,3.81.4,4.89,1.2.51-.6,1.12-1.05,1.84-1.35.72-.29,1.59-.44,2.6-.44h.35Z"/><path class="cls-1" d="m649.97,217.15c-1.16-1.4-1.74-3.37-1.74-5.91,0-2.28.49-4.12,1.46-5.5.98-1.38,2.39-2.26,4.24-2.63l2.46,1.73,2.6-1.73c1.7.33,2.95.96,3.76,1.89.81.93,1.21,2.17,1.21,3.73v10.3h-3.98v-9.48c0-1.5-.52-2.46-1.55-2.87l-1.78,1.05h-.41l-1.9-1.17c-.68.31-1.2.87-1.57,1.68-.36.81-.54,1.82-.54,3.03,0,1.56.29,2.77.88,3.64.58.87,1.41,1.3,2.49,1.3.37,0,.88-.09,1.52-.26l.76,2.66c-.8.43-1.8.64-3.01.64-2.11,0-3.74-.7-4.9-2.11Z"/><path class="cls-1" d="m669.94,218.95c-1.17-.24-2.15-.56-2.93-.95l.91-3.01c1.99.86,3.79,1.29,5.41,1.29.94,0,1.62-.14,2.06-.42.44-.28.66-.71.66-1.27,0-.43-.12-.77-.37-1.02-.24-.25-.6-.47-1.05-.64-.46-.18-1.15-.38-2.06-.61-1.09-.29-1.99-.6-2.69-.94-.7-.33-1.27-.8-1.71-1.4-.44-.6-.66-1.4-.66-2.4,0-1.52.55-2.67,1.64-3.45,1.09-.78,2.7-1.17,4.83-1.17.99,0,1.99.1,3,.29,1,.2,1.86.45,2.56.76l-.88,2.87c-1.85-.59-3.41-.88-4.68-.88-1.66,0-2.49.45-2.49,1.35,0,.55.27.96.8,1.23.54.27,1.36.56,2.47.85.62.16,1.08.28,1.38.38,1.27.39,2.23.94,2.9,1.64.66.7,1,1.67,1,2.9,0,1.6-.57,2.83-1.71,3.7-1.14.87-2.76,1.3-4.87,1.3-1.17,0-2.34-.12-3.51-.37Z"/><path class="cls-1" d="m673.83,199.68c0-1.44.32-2.49.96-3.13.64-.64,1.69-.97,3.13-.97h4.01v2.87h-2.66c-.62,0-1.07.14-1.35.41-.27.27-.41.72-.41,1.35v.53h-3.69v-1.05Z"/><polygon class="cls-1" points="140.64 90.66 140.64 156.44 98.42 156.44 98.42 78.71 92.39 78.71 92.39 144.48 74.29 144.48 74.29 54.79 116.51 54.79 116.51 138.5 122.54 138.5 122.54 90.66 140.64 90.66"/><polygon class="cls-1" points="146.67 186.33 146.67 264.06 116.51 264.06 116.51 186.33 110.48 186.33 110.48 234.17 98.42 234.17 98.42 162.42 128.58 162.42 128.58 228.19 134.6 228.19 134.6 186.33 146.67 186.33"/><polygon class="cls-1" points="68.27 54.79 68.27 180.35 38.11 180.35 38.11 138.5 32.08 138.5 32.08 210.25 13.99 210.25 13.99 90.66 44.14 90.66 44.14 126.54 50.17 126.54 50.17 54.79 68.27 54.79"/><polygon class="cls-1" points="92.39 150.46 92.39 252.11 56.2 252.11 56.2 210.25 50.17 210.25 50.17 234.17 38.11 234.17 38.11 186.33 68.27 186.33 68.27 222.21 74.29 222.21 74.29 150.46 92.39 150.46"/></g></svg>