<?xml version="1.0" encoding="utf-8"?>
<!-- Generator: Adobe Illustrator 27.4.0, SVG Export Plug-In . SVG Version: 6.00 Build 0)  -->
<svg version="1.1" id="logo" xmlns="http://www.w3.org/2000/svg" xmlns:xlink="http://www.w3.org/1999/xlink" x="0px" y="0px"
	 viewBox="0 0 453 317.4" style="enable-background:new 0 0 453 317.4;" xml:space="preserve">
<style type="text/css">
	.st0{fill:#AF1D41;}
</style>
<g id="red-nobg">
	<path class="st0" d="M38.1,107.7v30.4h-5.4L18,117.3v20.8h-5.9v-30.4H18l14.2,20.1v-20.1L38.1,107.7L38.1,107.7z"/>
	<path class="st0" d="M65.3,128.5H49.1c0.2,1.7,0.9,3.1,2.1,4.1c1.2,1,2.7,1.5,4.5,1.5c1.1,0,2.2-0.2,3.3-0.6c1-0.4,2-1,2.9-1.7
		l2.5,3.6c-2.3,2-5.3,3-9,3c-2.5,0-4.6-0.5-6.5-1.4s-3.3-2.3-4.3-4c-1-1.7-1.5-3.8-1.5-6.1c0-2.3,0.5-4.3,1.4-6.1s2.3-3.1,4.1-4.1
		s3.8-1.4,6.1-1.4c3.3,0,5.9,1,7.7,2.9c1.9,1.9,2.8,4.6,2.8,7.9C65.4,126.8,65.3,127.5,65.3,128.5L65.3,128.5z M60,124.7
		c0-1.5-0.5-2.8-1.4-3.7c-0.9-0.9-2.2-1.3-3.8-1.3c-1.5,0-2.8,0.4-3.8,1.3c-1,0.9-1.6,2.1-1.9,3.7H60L60,124.7z"/>
	<path class="st0" d="M90.7,115.8v22.2h-5.6v-3c-1.5,2.3-3.9,3.5-7.2,3.5c-2.7,0-4.8-0.7-6.2-2.2c-1.4-1.5-2.1-3.7-2.1-6.5v-13.9
		h5.8v13.4c0,3.2,1.3,4.8,4,4.8c1.1,0,2.2-0.2,3.2-0.8c1-0.5,1.8-1.2,2.4-2v-15.3L90.7,115.8L90.7,115.8z"/>
	<path class="st0" d="M111.3,115.8v4.8h-1c-3.2,0-5.7,1.7-7.4,5.1v12.4h-5.8v-22.2h5.6v4.4c0.9-1.6,1.9-2.8,3.1-3.6
		c1.2-0.7,2.5-1.1,4-1.1C110.5,115.6,110.9,115.6,111.3,115.8L111.3,115.8z"/>
	<path class="st0" d="M117.8,137c-1.8-1-3.2-2.3-4.2-4.1s-1.5-3.7-1.5-6c0-2.3,0.5-4.2,1.5-6s2.4-3.1,4.2-4.1s3.8-1.5,6.1-1.5
		s4.3,0.5,6.1,1.5c1.8,1,3.2,2.3,4.2,4.1c1,1.7,1.5,3.7,1.5,6c0,2.3-0.5,4.2-1.5,6c-1,1.7-2.4,3.1-4.2,4.1s-3.8,1.5-6.1,1.5
		S119.6,138,117.8,137z M128.2,132.1c1.1-1.3,1.6-3,1.6-5.1c0-2.1-0.5-3.8-1.6-5.2c-1.1-1.3-2.5-2-4.2-2s-3.2,0.7-4.2,2
		c-1.1,1.3-1.6,3-1.6,5.2c0,2.1,0.5,3.8,1.6,5.1c1.1,1.3,2.5,2,4.2,2S127.1,133.4,128.2,132.1z"/>
	<path class="st0" d="M142.6,137.9c-1.6-0.4-3.1-0.8-4.3-1.4l1.4-4.2c2.9,1.2,5.4,1.9,7.5,1.9c2.6,0,4-0.8,4-2.5
		c0-0.5-0.1-0.9-0.4-1.1s-0.7-0.5-1.4-0.8s-1.7-0.6-3.2-1c-1.6-0.5-3-0.9-3.9-1.4c-1-0.5-1.8-1.1-2.3-1.9c-0.6-0.8-0.9-2-0.9-3.4
		c0-2.2,0.8-3.9,2.3-5c1.5-1.1,3.7-1.7,6.5-1.7c1.5,0,3,0.1,4.5,0.4c1.4,0.3,2.7,0.7,3.7,1.1l-1.2,4.1c-2.6-0.9-4.9-1.4-6.7-1.4
		c-1.1,0-2,0.2-2.5,0.5c-0.6,0.3-0.9,0.8-0.9,1.4c0,0.7,0.4,1.2,1.1,1.6s1.9,0.7,3.4,1.1c0.9,0.2,1.6,0.4,2,0.6
		c1.8,0.5,3.1,1.3,4.1,2.3c0.9,1,1.4,2.4,1.4,4.1c0,2.3-0.8,4.1-2.4,5.3c-1.6,1.2-3.9,1.9-6.8,1.9
		C145.9,138.5,144.2,138.3,142.6,137.9L142.6,137.9z"/>
	<path class="st0" d="M165.7,137.1c-1.8-0.9-3.2-2.3-4.1-4c-1-1.7-1.5-3.8-1.5-6.1c0-2.3,0.5-4.4,1.4-6.1c1-1.7,2.3-3.1,4.1-4
		s3.8-1.4,6.2-1.4c1.5,0,3,0.2,4.4,0.6c1.4,0.4,2.6,1,3.7,1.8l-2.2,3.8c-0.9-0.6-1.8-1.1-2.7-1.4c-0.9-0.3-1.9-0.4-2.8-0.4
		c-1.9,0-3.4,0.6-4.5,1.9s-1.6,3-1.6,5.2c0,2.2,0.6,3.9,1.7,5.2c1.1,1.3,2.7,1.9,4.6,1.9c1,0,2-0.1,2.8-0.4c0.9-0.3,1.8-0.8,2.7-1.4
		l2.2,3.7c-1,0.8-2.2,1.4-3.6,1.9c-1.4,0.4-2.9,0.7-4.5,0.7C169.6,138.5,167.5,138,165.7,137.1L165.7,137.1z"/>
	<path class="st0" d="M185.3,112.8c-0.6-0.6-1-1.4-1-2.3s0.3-1.7,1-2.3c0.7-0.6,1.5-0.9,2.4-0.9s1.8,0.3,2.4,0.9s1,1.4,1,2.3
		s-0.3,1.7-1,2.3c-0.6,0.6-1.5,0.9-2.5,0.9S185.9,113.4,185.3,112.8L185.3,112.8z M184.9,115.8h5.8v22.2h-5.8V115.8z"/>
	<path class="st0" d="M217.6,128.5h-16.2c0.2,1.7,0.9,3.1,2.1,4.1c1.2,1,2.7,1.5,4.5,1.5c1.1,0,2.2-0.2,3.3-0.6c1-0.4,2-1,2.9-1.7
		l2.5,3.6c-2.3,2-5.3,3-9,3c-2.5,0-4.6-0.5-6.5-1.4s-3.3-2.3-4.3-4c-1-1.7-1.5-3.8-1.5-6.1c0-2.3,0.5-4.3,1.5-6.1s2.3-3.1,4.1-4.1
		s3.8-1.4,6.1-1.4c3.3,0,5.9,1,7.7,2.9c1.9,1.9,2.8,4.6,2.8,7.9C217.7,126.8,217.7,127.5,217.6,128.5L217.6,128.5z M212.3,124.7
		c0-1.5-0.5-2.8-1.4-3.7c-0.9-0.9-2.2-1.3-3.8-1.3c-1.5,0-2.8,0.4-3.8,1.3c-1,0.9-1.6,2.1-1.9,3.7H212.3L212.3,124.7z"/>
	<path class="st0" d="M241.3,117.6c1.4,1.5,2.1,3.7,2.1,6.5v13.9h-5.8v-13.4c0-1.6-0.3-2.8-1-3.6s-1.7-1.2-3.1-1.2
		c-1.1,0-2.2,0.3-3.2,0.8s-1.8,1.2-2.4,2.1v15.2h-5.8v-22.2h5.6v3.2c1.5-2.4,3.9-3.6,7.2-3.6C237.8,115.4,239.9,116.2,241.3,117.6
		L241.3,117.6z"/>
	<path class="st0" d="M253,137.1c-1.8-0.9-3.2-2.3-4.1-4c-1-1.7-1.5-3.8-1.5-6.1c0-2.3,0.5-4.4,1.4-6.1c1-1.7,2.3-3.1,4.1-4
		s3.8-1.4,6.2-1.4c1.5,0,3,0.2,4.4,0.6c1.4,0.4,2.6,1,3.7,1.8l-2.2,3.8c-0.9-0.6-1.8-1.1-2.7-1.4c-0.9-0.3-1.9-0.4-2.8-0.4
		c-1.9,0-3.4,0.6-4.5,1.9s-1.6,3-1.6,5.2c0,2.2,0.6,3.9,1.7,5.2c1.1,1.3,2.7,1.9,4.6,1.9c1,0,2-0.1,2.8-0.4c0.9-0.3,1.8-0.8,2.7-1.4
		l2.2,3.7c-1,0.8-2.2,1.4-3.6,1.9c-1.4,0.4-2.9,0.7-4.5,0.7C256.9,138.5,254.8,138,253,137.1L253,137.1z"/>
	<path class="st0" d="M290.6,128.5h-16.2c0.2,1.7,0.9,3.1,2.1,4.1c1.2,1,2.7,1.5,4.5,1.5c1.1,0,2.2-0.2,3.3-0.6c1-0.4,2-1,2.9-1.7
		l2.5,3.6c-2.3,2-5.3,3-9,3c-2.5,0-4.6-0.5-6.5-1.4s-3.3-2.3-4.3-4c-1-1.7-1.5-3.8-1.5-6.1c0-2.3,0.5-4.3,1.5-6.1s2.3-3.1,4.1-4.1
		s3.8-1.4,6.1-1.4c3.3,0,5.9,1,7.7,2.9c1.9,1.9,2.8,4.6,2.8,7.9C290.7,126.8,290.7,127.5,290.6,128.5L290.6,128.5z M285.3,124.7
		c0-1.5-0.5-2.8-1.4-3.7c-0.9-0.9-2.2-1.3-3.8-1.3c-1.5,0-2.8,0.4-3.8,1.3c-1,0.9-1.6,2.1-1.9,3.7H285.3L285.3,124.7z"/>
	<path class="st0" d="M312.8,136.6c-2.3-1.2-4.1-3.1-5.3-5.4s-1.9-5.1-1.9-8.3s0.6-6,1.9-8.3c1.2-2.3,3-4.2,5.3-5.4
		c2.3-1.2,5-1.9,8.2-1.9c1.9,0,3.7,0.2,5.5,0.7c1.7,0.4,3.1,1.1,4.2,1.9l-2.1,4.4c-1-0.6-2.1-1.1-3.4-1.5c-1.3-0.4-2.5-0.6-3.8-0.6
		c-2.9,0-5.2,1-6.9,2.9c-1.7,1.9-2.5,4.5-2.5,7.8s0.8,6,2.5,7.9c1.7,1.9,4,2.9,6.9,2.9c2.3,0,4.7-0.7,7.1-2.1l2.1,4.4
		c-1.1,0.8-2.6,1.4-4.3,1.9s-3.5,0.7-5.3,0.7C317.9,138.5,315.1,137.9,312.8,136.6L312.8,136.6z"/>
	<path class="st0" d="M354.4,128.5h-16.2c0.2,1.7,0.9,3.1,2.1,4.1c1.2,1,2.7,1.5,4.5,1.5c1.1,0,2.2-0.2,3.3-0.6c1-0.4,2-1,2.9-1.7
		l2.5,3.6c-2.3,2-5.3,3-9,3c-2.5,0-4.7-0.5-6.5-1.4s-3.3-2.3-4.3-4s-1.5-3.8-1.5-6.1c0-2.3,0.5-4.3,1.5-6.1c1-1.8,2.3-3.1,4.1-4.1
		s3.8-1.4,6.1-1.4c3.3,0,5.9,1,7.7,2.9c1.9,1.9,2.8,4.6,2.8,7.9C354.5,126.8,354.5,127.5,354.4,128.5L354.4,128.5z M349.1,124.7
		c0-1.5-0.5-2.8-1.4-3.7c-0.9-0.9-2.2-1.3-3.8-1.3c-1.5,0-2.8,0.4-3.8,1.3c-1,0.9-1.6,2.1-1.9,3.7H349.1L349.1,124.7z"/>
	<path class="st0" d="M378.1,117.6c1.4,1.5,2.1,3.7,2.1,6.5v13.9h-5.8v-13.4c0-1.6-0.3-2.8-1-3.6s-1.7-1.2-3.1-1.2
		c-1.1,0-2.2,0.3-3.2,0.8s-1.8,1.2-2.4,2.1v15.2H359v-22.2h5.6v3.2c1.5-2.4,3.9-3.6,7.2-3.6C374.6,115.4,376.7,116.2,378.1,117.6
		L378.1,117.6z"/>
	<path class="st0" d="M389,136.5c-1-1.2-1.6-3.3-1.6-6.2v-10.2h-3.6v-4.1h1c1.2,0,2-0.2,2.5-0.7s0.6-1.3,0.6-2.5v-2.3h5.3v5.2h5.8
		v4.3h-5.8V131c0,1.1,0.2,1.8,0.6,2.3c0.4,0.5,1,0.7,1.9,0.7c1,0,2.1-0.3,3.3-0.9l1.2,3.9c-1.5,0.9-3.5,1.3-5.9,1.3
		C391.8,138.3,390,137.7,389,136.5L389,136.5z"/>
	<path class="st0" d="M423.9,128.5h-16.2c0.2,1.7,0.9,3.1,2.1,4.1c1.2,1,2.7,1.5,4.5,1.5c1.1,0,2.2-0.2,3.3-0.6c1-0.4,2-1,2.9-1.7
		l2.5,3.6c-2.3,2-5.3,3-9,3c-2.5,0-4.7-0.5-6.5-1.4s-3.3-2.3-4.3-4s-1.5-3.8-1.5-6.1c0-2.3,0.5-4.3,1.5-6.1c1-1.8,2.3-3.1,4.1-4.1
		s3.8-1.4,6.1-1.4c3.3,0,5.9,1,7.7,2.9c1.9,1.9,2.8,4.6,2.8,7.9C424.1,126.8,424,127.5,423.9,128.5L423.9,128.5z M418.6,124.7
		c0-1.5-0.5-2.8-1.4-3.7c-0.9-0.9-2.2-1.3-3.8-1.3c-1.5,0-2.8,0.4-3.8,1.3c-1,0.9-1.6,2.1-1.9,3.7H418.6L418.6,124.7z"/>
	<path class="st0" d="M442.6,115.8v4.8h-1c-3.2,0-5.7,1.7-7.4,5.1v12.4h-5.8v-22.2h5.6v4.4c0.9-1.6,1.9-2.8,3.1-3.6
		c1.2-0.7,2.5-1.1,4-1.1C441.8,115.6,442.3,115.6,442.6,115.8L442.6,115.8z"/>
	<path class="st0" d="M11.9,157.5H9.3v-3.1h2.6v-0.9c0-2,0.4-3.4,1.2-4.3c0.8-0.9,2.1-1.3,3.9-1.3c0.7,0,1.4,0.1,2.1,0.2
		c0.7,0.1,1.4,0.3,2.1,0.6l-0.9,2.9c-0.9-0.3-1.7-0.5-2.4-0.5s-1.1,0.2-1.4,0.5s-0.4,0.9-0.4,1.7v1.2h4.2v3.3h-4.2v12.9h-4.2
		L11.9,157.5L11.9,157.5z"/>
	<path class="st0" d="M25.5,169.8c-1.3-0.7-2.3-1.7-3-3c-0.7-1.3-1.1-2.7-1.1-4.4s0.4-3.1,1.1-4.4c0.7-1.3,1.7-2.3,3-3
		c1.3-0.7,2.8-1.1,4.4-1.1s3.1,0.4,4.4,1.1s2.3,1.7,3,3c0.7,1.3,1.1,2.7,1.1,4.4s-0.4,3.1-1.1,4.4c-0.7,1.3-1.7,2.3-3,3
		s-2.8,1.1-4.4,1.1S26.8,170.5,25.5,169.8z M33,166.2c0.8-1,1.2-2.2,1.2-3.8s-0.4-2.8-1.2-3.8s-1.8-1.4-3.1-1.4s-2.3,0.5-3.1,1.4
		c-0.8,1-1.2,2.2-1.2,3.8s0.4,2.8,1.2,3.8s1.8,1.4,3.1,1.4S32.2,167.2,33,166.2z"/>
	<path class="st0" d="M52.1,154.3v3.5h-0.7c-2.4,0-4.1,1.2-5.4,3.8v9.1h-4.2v-16.2h4.1v3.2c0.6-1.2,1.4-2.1,2.3-2.6
		c0.9-0.5,1.9-0.8,2.9-0.8C51.5,154.2,51.9,154.2,52.1,154.3L52.1,154.3z"/>
	<path class="st0" d="M82.5,167.2v3.3h-0.9c-1.2,0-2.2-0.1-2.9-0.2s-1.3-0.5-1.8-0.9c-0.5-0.4-1-1.1-1.6-2l-2.8-4.3
		c-0.3-0.5-0.6-0.9-0.9-1.1c-0.3-0.2-0.6-0.3-1.1-0.3h-1.5v8.7h-4.6v-22.2h8.5c2.5,0,4.4,0.6,5.8,1.7s2.1,2.8,2.1,4.9
		c0,1.5-0.4,2.9-1.3,3.9c-0.9,1.1-2.1,1.8-3.6,2.1c0.4,0.3,0.8,0.7,1.2,1.4l1.6,2.3c0.5,0.8,0.9,1.4,1.2,1.7
		c0.3,0.3,0.6,0.5,0.9,0.6c0.3,0.1,0.7,0.2,1.2,0.2L82.5,167.2L82.5,167.2z M72.8,158.6c1.2,0,2.1-0.3,2.7-0.9c0.7-0.6,1-1.4,1-2.5
		s-0.3-1.9-1-2.5c-0.7-0.6-1.6-0.9-2.7-0.9h-3.9v6.7H72.8z"/>
	<path class="st0" d="M100,163.6H88.2c0.2,1.3,0.7,2.3,1.5,3c0.9,0.7,2,1.1,3.3,1.1c0.8,0,1.6-0.1,2.4-0.4c0.8-0.3,1.5-0.7,2.1-1.2
		l1.8,2.6c-1.7,1.5-3.9,2.2-6.5,2.2c-1.8,0-3.4-0.3-4.7-1c-1.4-0.7-2.4-1.7-3.1-2.9c-0.7-1.3-1.1-2.8-1.1-4.5s0.4-3.1,1.1-4.4
		s1.7-2.3,3-3s2.8-1.1,4.5-1.1c2.4,0,4.3,0.7,5.6,2.1c1.4,1.4,2.1,3.3,2.1,5.8C100,162.3,100,162.9,100,163.6L100,163.6z
		 M96.1,160.8c0-1.1-0.4-2-1-2.7s-1.6-1-2.8-1c-1.1,0-2,0.3-2.8,1s-1.2,1.5-1.4,2.7H96.1z"/>
	<path class="st0" d="M105.1,170.5c-1.2-0.3-2.2-0.6-3.2-1l1-3.1c2.1,0.9,4,1.4,5.5,1.4c1.9,0,2.9-0.6,2.9-1.8
		c0-0.4-0.1-0.6-0.3-0.8c-0.2-0.2-0.5-0.4-1-0.6c-0.5-0.2-1.2-0.4-2.3-0.7c-1.2-0.4-2.2-0.7-2.9-1s-1.3-0.8-1.7-1.4
		c-0.4-0.6-0.6-1.4-0.6-2.4c0-1.6,0.5-2.8,1.6-3.6s2.7-1.2,4.8-1.2c1.1,0,2.2,0.1,3.2,0.3c1,0.2,2,0.5,2.7,0.8l-0.9,3
		c-1.9-0.7-3.6-1-4.9-1c-0.8,0-1.4,0.1-1.9,0.3s-0.6,0.6-0.6,1c0,0.5,0.3,0.9,0.8,1.2s1.4,0.5,2.5,0.8c0.7,0.2,1.2,0.3,1.5,0.4
		c1.3,0.4,2.3,1,3,1.7c0.7,0.7,1,1.7,1,3c0,1.7-0.6,3-1.8,3.9s-2.8,1.4-4.9,1.4C107.5,170.9,106.3,170.8,105.1,170.5L105.1,170.5z"
		/>
	<path class="st0" d="M134,163.6h-11.8c0.2,1.3,0.7,2.3,1.5,3c0.9,0.7,2,1.1,3.3,1.1c0.8,0,1.6-0.1,2.4-0.4c0.8-0.3,1.5-0.7,2.1-1.2
		l1.8,2.6c-1.7,1.5-3.9,2.2-6.5,2.2c-1.8,0-3.4-0.3-4.7-1c-1.4-0.7-2.4-1.7-3.1-2.9c-0.7-1.3-1.1-2.8-1.1-4.5s0.4-3.1,1.1-4.4
		s1.7-2.3,3-3s2.8-1.1,4.5-1.1c2.4,0,4.3,0.7,5.6,2.1c1.4,1.4,2.1,3.3,2.1,5.8C134,162.3,134,162.9,134,163.6L134,163.6z
		 M130.1,160.8c0-1.1-0.4-2-1-2.7s-1.6-1-2.8-1c-1.1,0-2,0.3-2.8,1s-1.2,1.5-1.4,2.7H130.1z"/>
	<path class="st0" d="M152.5,170.4c-0.8,0.3-1.5,0.4-2.1,0.4c-2,0-3.2-0.7-3.8-2.2c-0.6,0.7-1.4,1.2-2.3,1.6c-0.9,0.4-1.9,0.6-3,0.6
		c-1.7,0-3-0.4-4-1.3c-1-0.9-1.5-2-1.5-3.5c0-1.8,0.9-3.1,2.7-4c1.8-0.9,4.4-1.4,7.8-1.3v-0.8c0-0.9-0.2-1.6-0.7-2s-1.3-0.6-2.3-0.6
		c-1.6,0-3.3,0.5-5.3,1.5l-1.3-3c0.9-0.5,2-0.9,3.3-1.2c1.4-0.3,2.7-0.5,3.9-0.5c2.2,0,3.8,0.5,4.9,1.4s1.6,2.4,1.6,4.3v6.7
		c0,0.6,0.3,1,0.9,1c0.4,0,0.6,0,0.8-0.1L152.5,170.4L152.5,170.4z M144.5,167.2c0.7-0.3,1.3-0.7,1.9-1.2v-2.6
		c-1.8,0.1-3.1,0.2-3.9,0.4c-0.9,0.2-1.5,0.4-1.8,0.7c-0.3,0.3-0.5,0.8-0.5,1.4c0,1.2,0.7,1.8,2.2,1.8
		C143,167.7,143.8,167.5,144.5,167.2L144.5,167.2z"/>
	<path class="st0" d="M165.4,154.3v3.5h-0.7c-2.4,0-4.1,1.2-5.4,3.8v9.1h-4.2v-16.2h4.1v3.2c0.6-1.2,1.4-2.1,2.3-2.6
		c0.9-0.5,1.9-0.8,2.9-0.8C164.9,154.2,165.2,154.2,165.4,154.3L165.4,154.3z"/>
	<path class="st0" d="M170.2,169.9c-1.3-0.7-2.3-1.7-3-2.9s-1.1-2.8-1.1-4.4s0.4-3.2,1-4.5c0.7-1.3,1.7-2.2,3-2.9
		c1.3-0.7,2.8-1,4.5-1c1.1,0,2.2,0.2,3.2,0.5s1.9,0.8,2.7,1.3l-1.6,2.8c-0.7-0.5-1.3-0.8-2-1s-1.4-0.3-2.1-0.3
		c-1.4,0-2.5,0.5-3.3,1.4c-0.8,0.9-1.2,2.2-1.2,3.8s0.4,2.9,1.2,3.8c0.8,0.9,2,1.4,3.4,1.4c0.7,0,1.4-0.1,2.1-0.3
		c0.7-0.2,1.3-0.6,2-1l1.6,2.7c-0.7,0.6-1.6,1-2.6,1.4c-1,0.3-2.1,0.5-3.3,0.5C173,170.9,171.5,170.6,170.2,169.9L170.2,169.9z"/>
	<path class="st0" d="M197.9,155.7c1,1.1,1.5,2.7,1.5,4.8v10.1h-4.2v-9.8c0-1.2-0.2-2-0.7-2.6c-0.5-0.6-1.2-0.9-2.2-0.9
		c-0.8,0-1.6,0.2-2.4,0.6s-1.3,0.9-1.7,1.6v11.1H184v-22.2h4.2v8.1c1.1-1.7,2.9-2.5,5.2-2.5C195.4,154,196.9,154.6,197.9,155.7
		L197.9,155.7z"/>
	<path class="st0" d="M227.9,170.4c-0.8,0.3-1.5,0.4-2.1,0.4c-2,0-3.2-0.7-3.8-2.2c-0.6,0.7-1.4,1.2-2.3,1.6c-0.9,0.4-1.9,0.6-3,0.6
		c-1.7,0-3-0.4-4-1.3c-1-0.9-1.5-2-1.5-3.5c0-1.8,0.9-3.1,2.7-4c1.8-0.9,4.4-1.4,7.8-1.3v-0.8c0-0.9-0.2-1.6-0.7-2s-1.3-0.6-2.3-0.6
		c-1.6,0-3.3,0.5-5.3,1.5l-1.3-3c0.9-0.5,2-0.9,3.3-1.2c1.4-0.3,2.7-0.5,3.9-0.5c2.2,0,3.8,0.5,4.9,1.4s1.6,2.4,1.6,4.3v6.7
		c0,0.6,0.3,1,0.9,1c0.4,0,0.6,0,0.8-0.1L227.9,170.4L227.9,170.4z M219.9,167.2c0.7-0.3,1.3-0.7,1.9-1.2v-2.6
		c-1.8,0.1-3.1,0.2-3.9,0.4c-0.9,0.2-1.5,0.4-1.8,0.7c-0.3,0.3-0.5,0.8-0.5,1.4c0,1.2,0.7,1.8,2.2,1.8
		C218.5,167.7,219.2,167.5,219.9,167.2L219.9,167.2z"/>
	<path class="st0" d="M244.5,155.7c1,1.1,1.5,2.7,1.5,4.8v10.1h-4.2v-9.8c0-1.2-0.2-2-0.7-2.6c-0.5-0.6-1.2-0.9-2.2-0.9
		c-0.8,0-1.6,0.2-2.4,0.6s-1.3,0.9-1.7,1.6v11.1h-4.2v-16.2h4.1v2.3c1.1-1.8,2.8-2.6,5.3-2.6C242,154.1,243.5,154.6,244.5,155.7
		L244.5,155.7z"/>
	<path class="st0" d="M265.5,148.4v22.2h-4.1v-1.5c-1.2,1.2-2.7,1.8-4.7,1.8c-1.5,0-2.8-0.4-3.9-1.1c-1.1-0.7-2-1.7-2.6-2.9
		s-1-2.7-1-4.3c0-1.7,0.4-3.2,1.1-4.5c0.7-1.3,1.7-2.3,3.1-3s2.9-1.1,4.6-1.1c1.2,0,2.3,0.2,3.4,0.6v-6.2L265.5,148.4L265.5,148.4z
		 M261.3,166.8v-8.9c-0.9-0.4-1.9-0.6-2.9-0.6c-1.5,0-2.7,0.5-3.6,1.4c-0.9,0.9-1.3,2.2-1.3,3.8s0.4,2.9,1.3,3.9
		c0.9,1,2.1,1.4,3.5,1.4C259.5,167.8,260.5,167.4,261.3,166.8L261.3,166.8z"/>
	<path class="st0" d="M279.7,148.4h4.6v22.2h-4.6V148.4z"/>
	<path class="st0" d="M303.7,155.7c1,1.1,1.5,2.7,1.5,4.8v10.1H301v-9.8c0-1.2-0.2-2-0.7-2.6c-0.5-0.6-1.2-0.9-2.2-0.9
		c-0.8,0-1.6,0.2-2.4,0.6s-1.3,0.9-1.7,1.6v11.1h-4.2v-16.2h4.1v2.3c1.1-1.8,2.8-2.6,5.3-2.6C301.2,154.1,302.7,154.6,303.7,155.7
		L303.7,155.7z"/>
	<path class="st0" d="M323.7,155.7c1,1.1,1.5,2.7,1.5,4.8v10.1H321v-9.8c0-1.2-0.2-2-0.7-2.6c-0.5-0.6-1.2-0.9-2.2-0.9
		c-0.8,0-1.6,0.2-2.4,0.6s-1.3,0.9-1.7,1.6v11.1h-4.2v-16.2h4.1v2.3c1.1-1.8,2.8-2.6,5.3-2.6C321.2,154.1,322.7,154.6,323.7,155.7
		L323.7,155.7z"/>
	<path class="st0" d="M332.3,169.8c-1.3-0.7-2.3-1.7-3-3c-0.7-1.3-1.1-2.7-1.1-4.4s0.4-3.1,1.1-4.4c0.7-1.3,1.7-2.3,3-3
		s2.8-1.1,4.5-1.1s3.2,0.4,4.5,1.1s2.3,1.7,3,3c0.7,1.3,1.1,2.7,1.1,4.4s-0.4,3.1-1.1,4.4c-0.7,1.3-1.7,2.3-3,3s-2.8,1.1-4.5,1.1
		S333.6,170.5,332.3,169.8z M339.9,166.2c0.8-1,1.2-2.2,1.2-3.8s-0.4-2.8-1.2-3.8s-1.8-1.4-3.1-1.4s-2.3,0.5-3.1,1.4
		c-0.8,1-1.2,2.2-1.2,3.8s0.4,2.8,1.2,3.8s1.8,1.4,3.1,1.4S339.1,167.2,339.9,166.2z"/>
	<path class="st0" d="M362.9,154.4l-6.2,16.2h-4.4l-6.2-16.2h4.4l4.1,11.6l4.1-11.6H362.9L362.9,154.4z"/>
	<path class="st0" d="M380.7,170.4c-0.8,0.3-1.5,0.4-2.1,0.4c-2,0-3.2-0.7-3.8-2.2c-0.6,0.7-1.4,1.2-2.3,1.6c-0.9,0.4-1.9,0.6-3,0.6
		c-1.7,0-3-0.4-4-1.3c-1-0.9-1.5-2-1.5-3.5c0-1.8,0.9-3.1,2.7-4c1.8-0.9,4.4-1.4,7.8-1.3v-0.8c0-0.9-0.2-1.6-0.7-2s-1.3-0.6-2.3-0.6
		c-1.6,0-3.3,0.5-5.3,1.5l-1.3-3c0.8-0.5,2-0.9,3.3-1.2c1.3-0.3,2.7-0.5,3.9-0.5c2.2,0,3.8,0.5,4.9,1.4s1.6,2.4,1.6,4.3v6.7
		c0,0.6,0.3,1,0.9,1c0.4,0,0.6,0,0.8-0.1L380.7,170.4L380.7,170.4z M372.7,167.2c0.7-0.3,1.3-0.7,1.9-1.2v-2.6
		c-1.8,0.1-3.1,0.2-3.9,0.4c-0.9,0.2-1.5,0.4-1.8,0.7c-0.3,0.3-0.5,0.8-0.5,1.4c0,1.2,0.7,1.8,2.2,1.8
		C371.3,167.7,372,167.5,372.7,167.2L372.7,167.2z"/>
	<path class="st0" d="M385.3,169.4c-0.8-0.9-1.1-2.4-1.1-4.5v-7.4h-2.7v-3h0.8c0.9,0,1.5-0.2,1.8-0.5c0.3-0.3,0.5-0.9,0.5-1.8v-1.6
		h3.8v3.8h4.2v3.1h-4.2v7.9c0,0.8,0.1,1.3,0.4,1.7s0.7,0.5,1.4,0.5c0.7,0,1.5-0.2,2.4-0.6l0.9,2.9c-1.1,0.6-2.5,0.9-4.3,0.9
		C387.3,170.8,386,170.3,385.3,169.4L385.3,169.4z"/>
	<path class="st0" d="M397,152.1c-0.5-0.4-0.7-1-0.7-1.7s0.2-1.2,0.7-1.7s1.1-0.7,1.8-0.7s1.3,0.2,1.8,0.7c0.5,0.4,0.7,1,0.7,1.7
		s-0.2,1.2-0.7,1.7c-0.5,0.4-1.1,0.7-1.8,0.7S397.5,152.6,397,152.1L397,152.1z M396.7,154.3h4.2v16.2h-4.2V154.3z"/>
	<path class="st0" d="M408.7,169.8c-1.3-0.7-2.3-1.7-3-3c-0.7-1.3-1.1-2.7-1.1-4.4s0.4-3.1,1.1-4.4c0.7-1.3,1.7-2.3,3-3
		s2.8-1.1,4.5-1.1s3.2,0.4,4.5,1.1s2.3,1.7,3,3c0.7,1.3,1.1,2.7,1.1,4.4s-0.4,3.1-1.1,4.4c-0.7,1.3-1.7,2.3-3,3s-2.8,1.1-4.5,1.1
		S410,170.5,408.7,169.8z M416.2,166.2c0.8-1,1.2-2.2,1.2-3.8s-0.4-2.8-1.2-3.8s-1.8-1.4-3.1-1.4s-2.3,0.5-3.1,1.4
		c-0.8,1-1.2,2.2-1.2,3.8s0.4,2.8,1.2,3.8s1.8,1.4,3.1,1.4S415.4,167.2,416.2,166.2z"/>
	<path class="st0" d="M438.9,155.7c1,1.1,1.5,2.7,1.5,4.8v10.1h-4.2v-9.8c0-1.2-0.2-2-0.7-2.6c-0.5-0.6-1.2-0.9-2.2-0.9
		c-0.8,0-1.6,0.2-2.4,0.6s-1.3,0.9-1.7,1.6v11.1H425v-16.2h4.1v2.3c1.1-1.8,2.8-2.6,5.3-2.6C436.4,154.1,437.9,154.6,438.9,155.7
		L438.9,155.7z"/>
	<path class="st0" d="M25,193.4v2.6c-0.4-0.1-0.8-0.1-1.2-0.1s-0.8,0-1.2,0.1c0.7,0.9,1,2,1,3.4v8h-3.3v-8c0-0.9-0.3-1.7-0.8-2.2
		c-0.5-0.5-1.3-0.8-2.2-0.8s-1.7,0.2-2.2,0.8c-0.5,0.5-0.8,1.2-0.8,2.2v2.3c0.4-0.6,0.9-1,1.5-1.3c0.6-0.3,1.2-0.4,2-0.4h0.6v2.6
		h-0.6c-1,0-1.7,0.1-2.3,0.4s-1,0.7-1.2,1.3v3.1h-3.3v-8c0-1.8,0.5-3.1,1.6-4s2.7-1.4,4.7-1.4c1.6,0,2.9,0.3,3.9,0.8
		c0.4-0.5,0.9-0.8,1.5-1s1.3-0.3,2.1-0.3L25,193.4L25,193.4z"/>
	<path class="st0" d="M17.2,213.9c-0.7-0.5-1-1.2-1-2v-0.8h-1.1v-2.1h3.8v2.4c0,0.3,0.1,0.6,0.2,0.8c0.2,0.2,0.4,0.3,0.7,0.3
		c0.3,0,0.5-0.1,0.6-0.3c0.2-0.2,0.2-0.4,0.2-0.8v-2.4h2.8v2.4c0,1-0.3,1.8-1,2.4s-1.6,0.9-2.7,0.9
		C18.8,214.7,17.9,214.4,17.2,213.9L17.2,213.9z"/>
	<path class="st0" d="M39.3,194.2v13.2h-3.2v-2c-0.9,1.5-2.3,2.2-4.3,2.2c-1.6,0-2.8-0.4-3.6-1.3c-0.8-0.9-1.2-2.2-1.2-3.9v-8.3h3.3
		v8c0,1.9,0.8,2.8,2.4,2.8c0.7,0,1.3-0.2,1.9-0.5c0.6-0.3,1.1-0.7,1.4-1.3v-9L39.3,194.2L39.3,194.2z"/>
	<path class="st0" d="M43.8,206.6c-1.1-0.7-1.6-1.7-1.6-3c0-0.9,0.2-1.6,0.8-2.2c0.5-0.6,1.2-0.9,2.2-1.1c-0.9-0.2-1.6-0.5-2.2-1
		c-0.5-0.5-0.8-1.2-0.8-1.9c0-1.1,0.4-1.9,1.2-2.5c0.8-0.6,1.9-0.9,3.4-0.9c0.7,0,1.3,0.1,1.9,0.3l-0.2,2.3
		c-0.4-0.1-0.7-0.1-1.1-0.1c-0.6,0-1.1,0.1-1.4,0.3s-0.5,0.5-0.5,1c0,0.9,0.8,1.4,2.4,1.4h0.9v2.3h-0.6c-1,0-1.6,0.1-2.1,0.4
		c-0.4,0.3-0.6,0.7-0.6,1.3s0.3,1.1,0.8,1.4c0.5,0.3,1.2,0.5,2.2,0.5c1.1,0,1.8-0.2,2.3-0.7s0.7-1.2,0.7-2.2v-8h3.3v8
		c0,1.9-0.5,3.3-1.5,4.1c-1,0.9-2.6,1.3-4.7,1.3C46.5,207.6,44.9,207.3,43.8,206.6L43.8,206.6z"/>
	<path class="st0" d="M49.8,191.2c0-1.2,0.3-2.1,0.8-2.6s1.4-0.8,2.6-0.8h3.4v2.4h-2.2c-0.5,0-0.9,0.1-1.1,0.3s-0.3,0.6-0.3,1.1v0.4
		h-3.1L49.8,191.2L49.8,191.2z"/>
	<path class="st0" d="M59.2,207.3c-0.9-0.2-1.7-0.5-2.3-0.9l1-2.4c1.3,0.7,2.5,1,3.5,1c1.1,0,2-0.4,2.6-1.2c0.6-0.8,0.9-1.9,0.9-3.3
		s-0.3-2.4-0.9-3.1c-0.6-0.7-1.5-1.1-2.6-1.1c-1,0-2.1,0.3-3.5,0.9l-1-2.4c0.6-0.3,1.3-0.6,2.2-0.8s1.7-0.3,2.6-0.3
		c2.1,0,3.7,0.6,4.8,1.7s1.7,2.8,1.7,5s-0.6,3.9-1.7,5.1c-1.1,1.2-2.7,1.9-4.7,1.9C60.9,207.6,60.1,207.5,59.2,207.3L59.2,207.3z"/>
	<path class="st0" d="M56.5,189.7h11.2v2.4H56.5V189.7z"/>
	<path class="st0" d="M80.4,195.6c1.2,1.1,1.8,2.7,1.8,4.8c0,1.5-0.3,2.8-0.8,3.8s-1.3,1.9-2.3,2.5c-1,0.6-2.2,0.9-3.6,0.9
		c-0.6,0-1.2-0.1-1.9-0.2l-1.5-5.3h-1.7V200h4.4l1.4,5.1c0.8-0.2,1.5-0.6,2-1.4c0.5-0.8,0.7-1.8,0.7-3c0-1.3-0.3-2.4-1-3.1
		c-0.6-0.7-1.6-1.1-2.8-1.1c-1.4,0-2.8,0.4-4.1,1.4l-1.2-2.4c1.5-1.1,3.4-1.6,5.5-1.6S79.2,194.5,80.4,195.6L80.4,195.6z"/>
	<path class="st0" d="M75.9,191.3c-0.5-0.5-0.8-1.4-0.8-2.6V188h3.1v0.7c0,0.3,0.1,0.6,0.3,0.8c0.2,0.2,0.5,0.2,0.9,0.2H85v2.4h-6.5
		C77.3,192.1,76.4,191.8,75.9,191.3L75.9,191.3z"/>
	<path class="st0" d="M85.4,206.6c-1.1-0.7-1.6-1.7-1.6-3c0-0.9,0.2-1.6,0.8-2.2c0.5-0.6,1.2-0.9,2.2-1.1c-0.9-0.2-1.6-0.5-2.2-1
		s-0.8-1.2-0.8-1.9c0-1.1,0.4-1.9,1.2-2.5c0.8-0.6,2-0.9,3.4-0.9c0.7,0,1.3,0.1,1.9,0.3l-0.2,2.3c-0.4-0.1-0.7-0.1-1.1-0.1
		c-0.6,0-1.1,0.1-1.4,0.3s-0.5,0.5-0.5,1c0,0.9,0.8,1.4,2.4,1.4h0.9v2.3h-0.6c-1,0-1.6,0.1-2.1,0.4c-0.4,0.3-0.6,0.7-0.6,1.3
		s0.3,1.1,0.8,1.4c0.5,0.3,1.2,0.5,2.2,0.5c1,0,1.8-0.2,2.3-0.7s0.7-1.2,0.7-2.2v-8h3.3v8c0,1.9-0.5,3.3-1.5,4.1
		c-1,0.9-2.6,1.3-4.7,1.3C88.1,207.6,86.5,207.3,85.4,206.6L85.4,206.6z"/>
	<path class="st0" d="M101,206.7c-0.5-0.5-0.8-1.4-0.8-2.7v-9.9h3.3v9.6c0,0.4,0.1,0.7,0.2,0.9s0.4,0.3,0.7,0.3s0.6,0,0.8-0.1
		l0.2,2.4c-0.6,0.2-1.3,0.3-2.1,0.3C102.3,207.5,101.5,207.3,101,206.7L101,206.7z M108,206.7c-0.5-0.5-0.8-1.4-0.8-2.7v-9.9h3.3
		v9.6c0,0.4,0.1,0.7,0.2,0.9s0.4,0.3,0.7,0.3s0.6,0,0.8-0.1l0.2,2.4c-0.6,0.2-1.3,0.3-2.1,0.3C109.3,207.5,108.5,207.3,108,206.7
		L108,206.7z"/>
	<path class="st0" d="M124.3,195.1c1,0.8,1.5,2,1.5,3.5v8.8h-3.3v-5.6l-1.3,0c-1.5,0-2.6,0.1-3.3,0.4c-0.7,0.3-1,0.8-1,1.4
		c0,0.5,0.2,0.9,0.5,1.2s0.8,0.4,1.4,0.4c0.4,0,1-0.1,1.6-0.2l0.5,2.2c-0.6,0.3-1.5,0.4-2.6,0.4c-1.5,0-2.7-0.4-3.5-1.1
		c-0.8-0.7-1.2-1.7-1.2-2.8c0-1.4,0.6-2.4,1.8-3.1c1.2-0.7,3.1-1,5.6-1l1.6,0.1V199c0-0.9-0.2-1.5-0.7-1.9s-1.2-0.6-2.3-0.6
		c-0.8,0-1.5,0.1-2.2,0.3c-0.7,0.2-1.4,0.5-2.2,0.9l-1-2.3c0.8-0.4,1.7-0.8,2.8-1c1-0.2,2.1-0.4,3.1-0.4
		C121.8,193.9,123.3,194.3,124.3,195.1L124.3,195.1z"/>
	<path class="st0" d="M129.1,198.4c-0.5-0.5-0.8-1.4-0.8-2.6v-0.7h3.1v0.7c0,0.3,0.1,0.6,0.3,0.8c0.2,0.2,0.5,0.2,0.9,0.2h3v2.4
		h-3.9C130.5,199.2,129.6,198.9,129.1,198.4z M129.1,205.2c-0.5-0.5-0.8-1.4-0.8-2.6V202h3.1v0.7c0,0.3,0.1,0.6,0.3,0.8
		c0.2,0.2,0.5,0.2,0.9,0.2h3v2.4h-3.9C130.5,206.1,129.6,205.8,129.1,205.2z"/>
	<path class="st0" d="M150.3,194.2v13.2h-3.2v-2c-0.9,1.5-2.3,2.2-4.3,2.2c-1.6,0-2.8-0.4-3.6-1.3c-0.8-0.9-1.2-2.2-1.2-3.9v-8.3
		h3.3v8c0,1.9,0.8,2.8,2.4,2.8c0.7,0,1.3-0.2,1.9-0.5c0.6-0.3,1.1-0.7,1.4-1.3v-9L150.3,194.2L150.3,194.2z"/>
	<path class="st0" d="M154.9,207.3c-0.9-0.2-1.7-0.5-2.3-0.9l1-2.4c1.3,0.7,2.5,1,3.5,1c1.1,0,2-0.4,2.6-1.2
		c0.6-0.8,0.9-1.9,0.9-3.3s-0.3-2.4-0.9-3.1s-1.5-1.1-2.6-1.1c-1,0-2.1,0.3-3.5,0.9l-1-2.4c0.6-0.3,1.3-0.6,2.2-0.8s1.7-0.3,2.6-0.3
		c2.1,0,3.7,0.6,4.8,1.7s1.7,2.8,1.7,5s-0.6,3.9-1.7,5.1c-1.1,1.2-2.7,1.9-4.8,1.9C156.6,207.6,155.8,207.5,154.9,207.3L154.9,207.3
		z"/>
	<path class="st0" d="M157.5,191.3c-0.5-0.5-0.8-1.4-0.8-2.6V188h3.1v0.7c0,0.3,0.1,0.6,0.3,0.8c0.2,0.2,0.5,0.2,0.9,0.2h5.6v2.4
		h-6.5C158.9,192.1,158,191.8,157.5,191.3L157.5,191.3z"/>
	<path class="st0" d="M167.1,205.8c-1-1.2-1.5-2.8-1.5-4.9c0-1.9,0.4-3.4,1.2-4.6s2-1.9,3.5-2.2l2.1,1.4l2.2-1.4
		c1.4,0.3,2.5,0.8,3.1,1.6s1,1.8,1,3.1v8.6h-3.3v-7.9c0-1.3-0.4-2.1-1.3-2.4l-1.5,0.9h-0.3l-1.6-1c-0.6,0.3-1,0.7-1.3,1.4
		c-0.3,0.7-0.5,1.5-0.5,2.5c0,1.3,0.2,2.3,0.7,3.1s1.2,1.1,2.1,1.1c0.3,0,0.7-0.1,1.3-0.2l0.6,2.2c-0.7,0.4-1.5,0.5-2.5,0.5
		C169.4,207.6,168.1,207,167.1,205.8L167.1,205.8z"/>
	<path class="st0" d="M192.9,195.4c1.1,1,1.6,2.4,1.6,4.2v7.8h-3.3v-8c0-0.9-0.3-1.6-0.9-2.1c-0.6-0.5-1.4-0.8-2.4-0.8
		c-0.9,0-1.7,0.2-2.2,0.5s-0.8,0.9-0.9,1.5h3v2h-1.6c-0.2,0.2-0.4,0.6-0.5,0.9c-0.1,0.4-0.1,0.9-0.1,1.5v4.3h-3.3v-3.3
		c0-1.5,0.5-2.6,1.5-3.5h-2.1v-0.9c0-1.9,0.5-3.3,1.6-4.3s2.7-1.5,4.8-1.5S191.8,194.4,192.9,195.4L192.9,195.4z"/>
	<path class="st0" d="M199.4,207.3c-1-0.2-1.8-0.5-2.5-0.8l0.8-2.5c1.7,0.7,3.2,1.1,4.5,1.1c0.8,0,1.4-0.1,1.7-0.4
		c0.4-0.2,0.5-0.6,0.5-1.1c0-0.4-0.1-0.6-0.3-0.9c-0.2-0.2-0.5-0.4-0.9-0.5s-1-0.3-1.7-0.5c-0.9-0.2-1.7-0.5-2.2-0.8
		c-0.6-0.3-1.1-0.7-1.4-1.2c-0.4-0.5-0.5-1.2-0.5-2c0-1.3,0.5-2.2,1.4-2.9s2.3-1,4-1c0.8,0,1.7,0.1,2.5,0.2c0.8,0.2,1.6,0.4,2.1,0.6
		l-0.7,2.4c-1.5-0.5-2.9-0.7-3.9-0.7c-1.4,0-2.1,0.4-2.1,1.1c0,0.5,0.2,0.8,0.7,1s1.1,0.5,2.1,0.7c0.5,0.1,0.9,0.2,1.1,0.3
		c1.1,0.3,1.9,0.8,2.4,1.4s0.8,1.4,0.8,2.4c0,1.3-0.5,2.4-1.4,3.1c-1,0.7-2.3,1.1-4.1,1.1C201.4,207.7,200.4,207.6,199.4,207.3
		L199.4,207.3z"/>
	<path class="st0" d="M212.4,207.3c-1-0.2-1.8-0.5-2.5-0.8l0.8-2.5c1.7,0.7,3.2,1.1,4.5,1.1c0.8,0,1.4-0.1,1.7-0.4
		c0.4-0.2,0.5-0.6,0.5-1.1c0-0.4-0.1-0.6-0.3-0.9c-0.2-0.2-0.5-0.4-0.9-0.5s-1-0.3-1.7-0.5c-0.9-0.2-1.7-0.5-2.2-0.8
		c-0.6-0.3-1.1-0.7-1.4-1.2c-0.4-0.5-0.5-1.2-0.5-2c0-1.3,0.5-2.2,1.4-2.9s2.3-1,4-1c0.8,0,1.7,0.1,2.5,0.2c0.8,0.2,1.6,0.4,2.1,0.6
		l-0.7,2.4c-1.5-0.5-2.9-0.7-3.9-0.7c-1.4,0-2.1,0.4-2.1,1.1c0,0.5,0.2,0.8,0.7,1s1.1,0.5,2.1,0.7c0.5,0.1,0.9,0.2,1.1,0.3
		c1.1,0.3,1.9,0.8,2.4,1.4s0.8,1.4,0.8,2.4c0,1.3-0.5,2.4-1.4,3.1c-1,0.7-2.3,1.1-4.1,1.1C214.3,207.7,213.3,207.6,212.4,207.3
		L212.4,207.3z"/>
	<path class="st0" d="M236.1,194.2v8.3c0,1.7-0.4,3-1.2,3.9c-0.8,0.9-2,1.3-3.6,1.3c-2,0-3.4-0.8-4.3-2.3v2.1h-3.2v-13.2h3.3v9
		c0.3,0.5,0.8,0.9,1.4,1.3c0.6,0.3,1.2,0.5,1.9,0.5c1.6,0,2.4-0.9,2.4-2.8v-8L236.1,194.2L236.1,194.2z"/>
	<path class="st0" d="M251.8,190v12.4c0,1.6-0.6,2.9-1.7,3.8s-2.6,1.4-4.6,1.4s-3.4-0.5-4.5-1.4s-1.6-2.2-1.6-3.8v-8.3h3.3v8.1
		c0,0.9,0.2,1.6,0.8,2.1s1.2,0.8,2.1,0.8s1.6-0.2,2.1-0.8c0.5-0.5,0.8-1.2,0.8-2.1V190H251.8L251.8,190z"/>
	<path class="st0" d="M256.8,207.3c-1-0.2-1.8-0.5-2.5-0.8l0.8-2.5c1.7,0.7,3.2,1.1,4.5,1.1c0.8,0,1.4-0.1,1.7-0.4
		c0.4-0.2,0.5-0.6,0.5-1.1c0-0.4-0.1-0.6-0.3-0.9c-0.2-0.2-0.5-0.4-0.9-0.5s-1-0.3-1.7-0.5c-0.9-0.2-1.7-0.5-2.2-0.8
		c-0.6-0.3-1.1-0.7-1.4-1.2c-0.4-0.5-0.5-1.2-0.5-2c0-1.3,0.5-2.2,1.4-2.9s2.3-1,4-1c0.8,0,1.7,0.1,2.5,0.2c0.8,0.2,1.6,0.4,2.1,0.6
		l-0.7,2.4c-1.5-0.5-2.9-0.7-3.9-0.7c-1.4,0-2.1,0.4-2.1,1.1c0,0.5,0.2,0.8,0.7,1s1.1,0.5,2.1,0.7c0.5,0.1,0.9,0.2,1.1,0.3
		c1.1,0.3,1.9,0.8,2.4,1.4s0.8,1.4,0.8,2.4c0,1.3-0.5,2.4-1.4,3.1c-1,0.7-2.3,1.1-4.1,1.1C258.7,207.7,257.8,207.6,256.8,207.3
		L256.8,207.3z"/>
	<path class="st0" d="M268,198.4c-0.5-0.5-0.8-1.4-0.8-2.6v-0.7h3.1v0.7c0,0.3,0.1,0.6,0.3,0.8c0.2,0.2,0.5,0.2,0.9,0.2h3v2.4h-3.9
		C269.4,199.2,268.5,198.9,268,198.4z M268,205.2c-0.5-0.5-0.8-1.4-0.8-2.6V202h3.1v0.7c0,0.3,0.1,0.6,0.3,0.8
		c0.2,0.2,0.5,0.2,0.9,0.2h3v2.4h-3.9C269.4,206.1,268.5,205.8,268,205.2z"/>
	<path class="st0" d="M290.4,193.4v2.6c-0.4-0.1-0.8-0.1-1.2-0.1c-0.6,0-1.1,0.1-1.6,0.1c0.6,0.6,0.9,1.5,0.9,2.8v8.6h-3.3v-5.6
		h-1.3c-1.5,0-2.7,0.1-3.4,0.4s-1,0.8-1,1.4c0,0.5,0.2,0.9,0.5,1.1s0.8,0.4,1.4,0.4c0.4,0,1-0.1,1.6-0.2l0.5,2.2
		c-0.6,0.3-1.5,0.4-2.6,0.4c-1.5,0-2.6-0.4-3.4-1c-0.8-0.7-1.2-1.6-1.2-2.9c0-1.4,0.6-2.5,1.8-3.2s3.1-1,5.6-1c0.7,0,1.2,0,1.6,0
		V199c0-0.9-0.2-1.5-0.7-1.9s-1.2-0.6-2.3-0.6c-0.8,0-1.5,0.1-2.2,0.3c-0.7,0.2-1.4,0.5-2.2,0.9l-1-2.3c0.8-0.4,1.7-0.7,2.7-1
		c1-0.2,2-0.4,3-0.4c1.8,0,3.2,0.3,4.1,1c0.4-0.5,0.9-0.9,1.5-1.1s1.3-0.4,2.2-0.4L290.4,193.4L290.4,193.4z"/>
	<path class="st0" d="M296.3,198.4c0-1.3-0.7-1.9-2-1.9c-0.8,0-1.7,0.2-2.8,0.7l-0.7-2.4c1.3-0.5,2.7-0.8,4.1-0.8
		c1.6,0,2.8,0.4,3.6,1.1s1.1,1.9,1.1,3.4v9h-3.3V198.4L296.3,198.4z"/>
	<path class="st0" d="M314.2,195.2c0.8,0.9,1.2,2.2,1.2,3.9v8.3h-3.3v-8c0-1.9-0.8-2.8-2.4-2.8c-0.7,0-1.4,0.2-2,0.5
		s-1.1,0.7-1.4,1.3v9H303v-13.2h3.2v1.6c1-1.2,2.4-1.9,4.3-1.9C312.1,193.9,313.3,194.3,314.2,195.2L314.2,195.2z"/>
	<path class="st0" d="M319.9,207.3c-0.9-0.2-1.7-0.5-2.3-0.9l1-2.4c1.3,0.7,2.5,1,3.5,1c1.1,0,2-0.4,2.6-1.2
		c0.6-0.8,0.9-1.9,0.9-3.3s-0.3-2.4-0.9-3.1s-1.5-1.1-2.6-1.1c-1,0-2.1,0.3-3.5,0.9l-1-2.4c0.6-0.3,1.3-0.6,2.2-0.8
		c0.9-0.2,1.7-0.3,2.6-0.3c2.1,0,3.7,0.6,4.8,1.7s1.7,2.8,1.7,5s-0.6,3.9-1.7,5.1c-1.1,1.2-2.7,1.9-4.8,1.9
		C321.6,207.6,320.7,207.5,319.9,207.3L319.9,207.3z"/>
	<path class="st0" d="M317.2,189.7h11.2v2.4h-11.2V189.7z"/>
	<path class="st0" d="M342.7,195.2c0.8,0.9,1.2,2.2,1.2,3.9v8.3h-3.3v-8c0-1.9-0.8-2.8-2.4-2.8c-0.7,0-1.4,0.2-2,0.5
		s-1.1,0.7-1.4,1.3v9h-3.3v-13.2h3.2v1.6c1-1.2,2.4-1.9,4.3-1.9C340.6,193.9,341.8,194.3,342.7,195.2L342.7,195.2z"/>
	<path class="st0" d="M348.2,206.6c-1.1-0.7-1.7-1.7-1.7-3c0-0.9,0.2-1.6,0.8-2.2c0.5-0.6,1.2-0.9,2.2-1.1c-0.9-0.2-1.7-0.5-2.2-1
		c-0.5-0.5-0.8-1.2-0.8-1.9c0-1.1,0.4-1.9,1.2-2.5c0.8-0.6,2-0.9,3.4-0.9c0.7,0,1.3,0.1,1.9,0.3l-0.2,2.3c-0.4-0.1-0.7-0.1-1.1-0.1
		c-0.6,0-1.1,0.1-1.4,0.3s-0.5,0.5-0.5,1c0,0.9,0.8,1.4,2.4,1.4h0.9v2.3h-0.6c-1,0-1.7,0.1-2.1,0.4c-0.4,0.3-0.6,0.7-0.6,1.3
		s0.3,1.1,0.8,1.4s1.2,0.5,2.2,0.5c1,0,1.8-0.2,2.3-0.7c0.5-0.4,0.7-1.2,0.7-2.2v-8h3.3v8c0,1.9-0.5,3.3-1.5,4.1
		c-1,0.9-2.6,1.3-4.7,1.3C350.9,207.6,349.3,207.3,348.2,206.6L348.2,206.6z"/>
	<path class="st0" d="M366.5,198.4c0-1.3-0.7-1.9-2-1.9c-0.8,0-1.7,0.2-2.8,0.7l-0.7-2.4c1.3-0.5,2.7-0.8,4.1-0.8
		c1.6,0,2.8,0.4,3.6,1.1s1.2,1.9,1.2,3.4v9h-3.3V198.4L366.5,198.4z"/>
	<path class="st0" d="M387.1,193.4v2.6c-0.4-0.1-0.8-0.1-1.2-0.1s-0.8,0-1.2,0.1c0.7,0.9,1,2,1,3.4v8h-3.3v-8c0-0.9-0.3-1.7-0.8-2.2
		s-1.3-0.8-2.2-0.8s-1.7,0.2-2.2,0.8s-0.8,1.2-0.8,2.2v2.3c0.4-0.6,0.9-1,1.5-1.3c0.6-0.3,1.2-0.4,2-0.4h0.6v2.6h-0.6
		c-1,0-1.7,0.1-2.3,0.4c-0.6,0.3-1,0.7-1.2,1.3v3.1H373v-8c0-1.8,0.5-3.1,1.6-4s2.7-1.4,4.7-1.4c1.6,0,2.9,0.3,3.9,0.8
		c0.4-0.5,0.9-0.8,1.5-1s1.3-0.3,2.1-0.3L387.1,193.4L387.1,193.4z"/>
	<path class="st0" d="M393.1,198.4c0-1.3-0.7-1.9-2-1.9c-0.8,0-1.7,0.2-2.8,0.7l-0.7-2.4c1.3-0.5,2.7-0.8,4.1-0.8
		c1.6,0,2.8,0.4,3.6,1.1s1.2,1.9,1.2,3.4v9h-3.3V198.4L393.1,198.4z"/>
	<path class="st0" d="M413.2,193.4v2.6c-0.4-0.1-0.8-0.1-1.2-0.1c-0.6,0-1.2,0.1-1.6,0.1c0.6,0.6,0.9,1.5,0.9,2.8v8.6h-3.3v-5.6
		h-1.3c-1.5,0-2.7,0.1-3.3,0.4s-1,0.8-1,1.4c0,0.5,0.2,0.9,0.5,1.1s0.8,0.4,1.4,0.4c0.4,0,1-0.1,1.6-0.2l0.5,2.2
		c-0.7,0.3-1.5,0.4-2.6,0.4c-1.5,0-2.6-0.4-3.4-1c-0.8-0.7-1.2-1.6-1.2-2.9c0-1.4,0.6-2.5,1.8-3.2c1.2-0.7,3.1-1,5.6-1
		c0.7,0,1.2,0,1.6,0V199c0-0.9-0.2-1.5-0.7-1.9s-1.2-0.6-2.3-0.6c-0.8,0-1.5,0.1-2.2,0.3c-0.7,0.2-1.4,0.5-2.2,0.9l-1-2.3
		c0.8-0.4,1.7-0.7,2.7-1c1-0.2,2-0.4,3-0.4c1.8,0,3.2,0.3,4.1,1c0.4-0.5,0.9-0.9,1.5-1.1s1.3-0.4,2.2-0.4L413.2,193.4L413.2,193.4z"
		/>
	<path class="st0" d="M415.7,205.8c-1-1.2-1.5-2.8-1.5-4.9c0-1.9,0.4-3.4,1.2-4.6s2-1.9,3.5-2.2l2.1,1.4l2.2-1.4
		c1.4,0.3,2.5,0.8,3.2,1.6c0.7,0.8,1,1.8,1,3.1v8.6h-3.3v-7.9c0-1.3-0.4-2.1-1.3-2.4l-1.5,0.9H421l-1.6-1c-0.6,0.3-1,0.7-1.3,1.4
		c-0.3,0.7-0.5,1.5-0.5,2.5c0,1.3,0.2,2.3,0.7,3.1s1.2,1.1,2.1,1.1c0.3,0,0.7-0.1,1.3-0.2l0.6,2.2c-0.7,0.4-1.5,0.5-2.5,0.5
		C418.1,207.6,416.7,207,415.7,205.8L415.7,205.8z"/>
	<path class="st0" d="M432.5,207.3c-1-0.2-1.8-0.5-2.5-0.8l0.8-2.5c1.7,0.7,3.2,1.1,4.5,1.1c0.8,0,1.4-0.1,1.7-0.4s0.5-0.6,0.5-1.1
		c0-0.4-0.1-0.6-0.3-0.9c-0.2-0.2-0.5-0.4-0.9-0.5s-1-0.3-1.7-0.5c-0.9-0.2-1.7-0.5-2.2-0.8c-0.6-0.3-1.1-0.7-1.4-1.2
		c-0.4-0.5-0.5-1.2-0.5-2c0-1.3,0.5-2.2,1.4-2.9s2.3-1,4-1c0.8,0,1.7,0.1,2.5,0.2c0.8,0.2,1.6,0.4,2.1,0.6l-0.7,2.4
		c-1.5-0.5-2.9-0.7-3.9-0.7c-1.4,0-2.1,0.4-2.1,1.1c0,0.5,0.2,0.8,0.7,1s1.1,0.5,2.1,0.7c0.5,0.1,0.9,0.2,1.2,0.3
		c1.1,0.3,1.9,0.8,2.4,1.4s0.8,1.4,0.8,2.4c0,1.3-0.5,2.4-1.4,3.1c-1,0.7-2.3,1.1-4.1,1.1C434.4,207.7,433.4,207.6,432.5,207.3
		L432.5,207.3z"/>
	<path class="st0" d="M435.7,191.2c0-1.2,0.3-2.1,0.8-2.6s1.4-0.8,2.6-0.8h3.4v2.4h-2.2c-0.5,0-0.9,0.1-1.1,0.3s-0.3,0.6-0.3,1.1
		v0.4h-3.1L435.7,191.2L435.7,191.2z"/>
</g>
</svg>
