<svg width="128" height="128" viewBox="0 0 228 228" fill="white" xmlns="http://www.w3.org/2000/svg">
<rect width="128" height="128" rx="30" fill="white"/>
<path d="M168.84 51.53V111.17H130.56V40.69H125.09V100.33H108.68V19H146.96V94.91H152.43V51.53H168.84Z" fill="#A02040"/>
<path d="M174.31 138.28V208.76H146.96V138.28H141.5V181.66H130.56V116.59H157.9V176.23H163.37V138.28H174.31Z" fill="#A02040"/>
<path d="M103.22 19V132.86H75.88V94.91H70.41V159.97H54V51.53H81.34V84.06H86.81V19H103.22Z" fill="#A02040"/>
<path d="M125.09 105.75V197.92H92.2801V159.97H86.8101V181.66H75.8701V138.28H103.22V170.81H108.68V105.75H125.09Z" fill="#A02040"/>
</svg>
